<?xml version="1.0" encoding="utf-8" ?>
<svg baseProfile="full" height="355px" style="background-color:rgb(255, 255, 255)" version="1.1" viewBox="-40,125,940.0,355" width="940.0px" xmlns="http://www.w3.org/2000/svg" xmlns:ev="http://www.w3.org/2001/xml-events" xmlns:xlink="http://www.w3.org/1999/xlink"><defs><marker id="id3" markerHeight="4" markerWidth="4" orient="auto" refX="2" refY="2"><path d="M0,0 V4 L2,2 Z" stroke-width="1" /></marker></defs><g id="S01"><path d="M 40 210.0  L 40 210  L 100 210 " fill="none" marker-end="url(#id3)" stroke="rgb(0, 0, 0)" stroke-width="2" /><text fill="rgb(0, 0, 0)" font-family="Arial" font-size="10" text-anchor="middle" x="50" y="220">S01</text></g><g id="S02"><path d="M 180 210.0  L 180 210  L 240 210 " fill="none" marker-end="url(#id3)" stroke="rgb(0, 0, 0)" stroke-width="2" /><text fill="rgb(0, 0, 0)" font-family="Arial" font-size="10" text-anchor="middle" x="190" y="220">S02</text></g><g id="S03"><path d="M 320 210.0  L 320 210  L 380 210 " fill="none" marker-end="url(#id3)" stroke="rgb(0, 0, 0)" stroke-width="2" /><text fill="rgb(0, 0, 0)" font-family="Arial" font-size="10" text-anchor="middle" x="330" y="220">S03</text></g><g id="S04"><path d="M 460 210.0  L 460 210  L 520 210 " fill="none" marker-end="url(#id3)" stroke="rgb(0, 0, 0)" stroke-width="2" /><text fill="rgb(0, 0, 0)" font-family="Arial" font-size="10" text-anchor="middle" x="470" y="220">S04</text></g><g id="S05"><path d="M 600 210.0  L 600 210  L 660 210 " fill="none" marker-end="url(#id3)" stroke="rgb(0, 0, 0)" stroke-width="2" /><text fill="rgb(0, 0, 0)" font-family="Arial" font-size="10" text-anchor="middle" x="610" y="220">S05</text></g><g id="S06"><path d="M 740 210.0  L 740 210  L 800 210 " fill="none" marker-end="url(#id3)" stroke="rgb(0, 0, 0)" stroke-width="2" /><text fill="rgb(0, 0, 0)" font-family="Arial" font-size="10" text-anchor="middle" x="750" y="220">S06</text></g><g id="S07"><path d="M 140.0 240  L 140 240  L 140 360 " fill="none" marker-end="url(#id3)" stroke="rgb(0, 0, 0)" stroke-width="2" /><text fill="rgb(0, 0, 0)" font-family="Arial" font-size="10" text-anchor="middle" x="140" y="260">S07</text></g><g id="S08"><path d="M 700.0 240  L 700 240  L 700 360 " fill="none" marker-end="url(#id3)" stroke="rgb(0, 0, 0)" stroke-width="2" /><text fill="rgb(0, 0, 0)" font-family="Arial" font-size="10" text-anchor="middle" x="700" y="260">S08</text></g><g id="S09"><path d="M 420.0 180  L 420 180  L 420 170  L 280 170  L 280 180 " fill="none" marker-end="url(#id3)" stroke="rgb(0, 0, 0)" stroke-width="2" /><text fill="rgb(0, 0, 0)" font-family="Arial" font-size="10" text-anchor="middle" x="420" y="165">S09</text></g><g id="S10"><path d="M 560.0 240  L 560 240  L 560 250  L 280 250  L 280 240 " fill="none" marker-end="url(#id3)" stroke="rgb(0, 0, 0)" stroke-width="2" /><text fill="rgb(0, 0, 0)" font-family="Arial" font-size="10" text-anchor="middle" x="560" y="260">S10</text></g><g id="FeedT"><path d="M 0 200.0  L 20.0 200.0  L 20.0 190  L 40 210.0  L 20.0 230  L 20.0 220.0  L 0 220.0  Z" fill="rgb(255, 255, 255)" stroke="rgb(0, 0, 0)" stroke-width="2" /></g><g id="Feed"><text fill="rgb(0, 0, 0)" font-family="Arial" font-size="12" text-anchor="middle" x="20.0" y="250">Feed</text></g><g id="ProductT"><path d="M 800 200.0  L 820.0 200.0  L 820.0 190  L 840 210.0  L 820.0 230  L 820.0 220.0  L 800 220.0  Z" fill="rgb(255, 255, 255)" stroke="rgb(0, 0, 0)" stroke-width="2" /></g><g id="Product"><text fill="rgb(0, 0, 0)" font-family="Arial" font-size="12" text-anchor="middle" x="820.0" y="250">Product</text></g><g id="WasteT" transform="rotate(90,140.0,380.0 ) "><path d="M 120 370.0  L 140.0 370.0  L 140.0 360  L 160 380.0  L 140.0 400  L 140.0 390.0  L 120 390.0  Z" fill="rgb(255, 255, 255)" stroke="rgb(0, 0, 0)" stroke-width="2" /></g><g id="Waste"><text fill="rgb(0, 0, 0)" font-family="Arial" font-size="12" text-anchor="middle" x="140.0" y="420">Waste</text></g><g id="SideProductT" transform="rotate(90,700.0,380.0 ) "><path d="M 680 370.0  L 700.0 370.0  L 700.0 360  L 720 380.0  L 700.0 400  L 700.0 390.0  L 680 390.0  Z" fill="rgb(255, 255, 255)" stroke="rgb(0, 0, 0)" stroke-width="2" /></g><g id="SideProduct"><text fill="rgb(0, 0, 0)" font-family="Arial" font-size="12" text-anchor="middle" x="700.0" y="420">SideProduct</text></g><g id="PretreatmentT"><rect fill="rgb(255, 255, 255)" height="60" stroke="rgb(0, 0, 0)" stroke-width="2" width="80" x="100" y="180" /></g><g id="Pretreatment"><text fill="rgb(0, 0, 0)" font-family="Arial" font-size="12" text-anchor="middle" x="140.0" y="215.0">Pretreatment</text></g><g id="ReactionT"><rect fill="rgb(255, 255, 255)" height="60" stroke="rgb(0, 0, 0)" stroke-width="2" width="80" x="240" y="180" /></g><g id="Reaction"><text fill="rgb(0, 0, 0)" font-family="Arial" font-size="12" text-anchor="middle" x="280.0" y="215.0">Reaction</text></g><g id="Gas-RecoveryT"><rect fill="rgb(255, 255, 255)" height="60" stroke="rgb(0, 0, 0)" stroke-width="2" width="80" x="380" y="180" /></g><g id="Gas-Recovery"><text fill="rgb(0, 0, 0)" font-family="Arial" font-size="12" text-anchor="middle" x="420.0" y="215.0">Gas-Recovery</text></g><g id="SeparationT"><rect fill="rgb(255, 255, 255)" height="60" stroke="rgb(0, 0, 0)" stroke-width="2" width="80" x="520" y="180" /></g><g id="Separation"><text fill="rgb(0, 0, 0)" font-family="Arial" font-size="12" text-anchor="middle" x="560.0" y="215.0">Separation</text></g><g id="PurificationT"><rect fill="rgb(255, 255, 255)" height="60" stroke="rgb(0, 0, 0)" stroke-width="2" width="80" x="660" y="180" /></g><g id="Purification"><text fill="rgb(0, 0, 0)" font-family="Arial" font-size="12" text-anchor="middle" x="700.0" y="215.0">Purification</text></g></svg>