<?xml version="1.0" encoding="utf-8" ?>
<svg baseProfile="full" height="640px" style="background-color:rgb(255, 255, 255)" version="1.1" viewBox="-40,-40,700.0,620" width="1280px" xmlns="http://www.w3.org/2000/svg" xmlns:ev="http://www.w3.org/2001/xml-events" xmlns:xlink="http://www.w3.org/1999/xlink"><defs><marker id="id19" markerHeight="4" markerWidth="4" orient="auto" refX="2" refY="2"><path d="M0,0 V4 L2,2 Z" stroke-width="1" /></marker></defs><g id="S01"><path d="M 40 480.0  L 40 480  L 160 480 " fill="none" marker-end="url(#id19)" stroke="rgb(0, 0, 0)" stroke-width="2" /><text fill="rgb(0, 0, 0)" font-family="Arial" font-size="10" text-anchor="middle" x="50" y="490">S01</text></g><g id="S02"><path d="M 200 420.0  L 200 420  L 210 420  L 210 270  L 300 270 " fill="none" marker-end="url(#id19)" stroke="rgb(0, 0, 0)" stroke-width="2" /><text fill="rgb(0, 0, 0)" font-family="Arial" font-size="10" text-anchor="middle" x="210" y="430">S02</text></g><g id="S04"><path d="M 320.0 420  L 320 420  L 320 430  L 390 430  L 390 460  L 400 460  L 404.0 460.0 " fill="none" marker-end="url(#id19)" stroke="rgb(0, 0, 0)" stroke-width="2" /><text fill="rgb(0, 0, 0)" font-family="Arial" font-size="10" text-anchor="middle" x="320" y="440">S04</text></g><g id="S05"><path d="M 160 420.0  L 160 420  L 40 420 " fill="none" marker-end="url(#id19)" stroke="rgb(0, 0, 0)" stroke-width="2" /><text fill="rgb(0, 0, 0)" font-family="Arial" font-size="10" text-anchor="middle" x="150" y="430">S05</text></g><g id="S06"><path d="M 416.0 460.0  L 420 460  L 460 460  L 464.0 460.0 " fill="none" marker-end="url(#id19)" stroke="rgb(0, 0, 0)" stroke-width="2" /><text fill="rgb(0, 0, 0)" font-family="Arial" font-size="10" text-anchor="middle" x="430" y="470">S06</text></g><g id="S08"><path d="M 470.0 454.0  L 470 450  L 470 330  L 410 330  L 410 340 " fill="none" marker-end="url(#id19)" stroke="rgb(0, 0, 0)" stroke-width="2" /><text fill="rgb(0, 0, 0)" font-family="Arial" font-size="10" text-anchor="middle" x="470" y="440">S08</text></g><g id="S09"><path d="M 410.0 420.0  L 410 420  L 410 450  L 410.0 454.0 " fill="none" marker-end="url(#id19)" stroke="rgb(0, 0, 0)" stroke-width="2" /><text fill="rgb(0, 0, 0)" font-family="Arial" font-size="10" text-anchor="middle" x="410" y="440">S09</text></g><g id="S10"><path d="M 390 400.0  L 390 400  L 340 400 " fill="none" marker-end="url(#id19)" stroke="rgb(0, 0, 0)" stroke-width="2" /><text fill="rgb(0, 0, 0)" font-family="Arial" font-size="10" text-anchor="middle" x="380" y="410">S10</text></g><g id="S11"><path d="M 320.0 120  L 320 120  L 320 80  L 360 80  L 361.7037086855466 77.05904774487396 " fill="none" marker-end="url(#id19)" stroke="rgb(0, 0, 0)" stroke-width="2" /><text fill="rgb(0, 0, 0)" font-family="Arial" font-size="10" text-anchor="middle" x="330" y="100">S11</text></g><g id="S12"><path d="M 458.2962913144534 102.94095225512604  L 460 100  L 510 100  L 510 130  L 510.0 134.0 " fill="none" marker-end="url(#id19)" stroke="rgb(0, 0, 0)" stroke-width="2" /><text fill="rgb(0, 0, 0)" font-family="Arial" font-size="10" text-anchor="middle" x="470" y="120">S12</text></g><g id="S13"><path d="M 516.0 140.0  L 520 140  L 560 140 " fill="none" marker-end="url(#id19)" stroke="rgb(0, 0, 0)" stroke-width="2" /><text fill="rgb(0, 0, 0)" font-family="Arial" font-size="10" text-anchor="middle" x="540" y="150">S13</text></g><g id="S14"><path d="M 504.0 140.0  L 500 140  L 340 140 " fill="none" marker-end="url(#id19)" stroke="rgb(0, 0, 0)" stroke-width="2" /><text fill="rgb(0, 0, 0)" font-family="Arial" font-size="10" text-anchor="middle" x="480" y="150">S14</text></g><g id="S15"><path d="M 448.9837848221678 79.74015005280687  L 450 80  L 450 20  L 560 20 " fill="none" marker-end="url(#id19)" stroke="rgb(0, 0, 0)" stroke-width="2" /><text fill="rgb(0, 0, 0)" font-family="Arial" font-size="10" text-anchor="middle" x="460" y="60">S15</text></g><g id="S07"><path d="M 476.0 460.0  L 480 460  L 490 460  L 490 480  L 200 480 " fill="none" marker-end="url(#id19)" stroke="rgb(0, 0, 0)" stroke-width="2" /><text fill="rgb(0, 0, 0)" font-family="Arial" font-size="10" text-anchor="middle" x="525" y="470">S07</text></g><g id="FeedT"><path d="M 0 470.0  L 20.0 470.0  L 20.0 460  L 40 480.0  L 20.0 500  L 20.0 490.0  L 0 490.0  Z" fill="rgb(255, 255, 255)" stroke="rgb(0, 0, 0)" stroke-width="2" /></g><g id="Feed"><text fill="rgb(0, 0, 0)" font-family="Arial" font-size="12" text-anchor="middle" x="20.0" y="520">Feed</text></g><g id="PreheaterT"><rect fill="rgb(255, 255, 255)" height="80" stroke="rgb(0, 0, 0)" stroke-width="2" width="40" x="160" y="410" /><line stroke="rgb(0, 0, 0)" stroke-width="2" x1="160" x2="200" y1="480.0" y2="420.0" /><line stroke="rgb(0, 0, 0)" stroke-width="2" x1="160" x2="200" y1="420.0" y2="480.0" /><line stroke="rgb(0, 0, 0)" stroke-width="2" x1="160" x2="200" y1="434.0" y2="434.0" /><line stroke="rgb(0, 0, 0)" stroke-width="2" x1="160" x2="200" y1="450.0" y2="450.0" /><line stroke="rgb(0, 0, 0)" stroke-width="2" x1="160" x2="200" y1="466.0" y2="466.0" /></g><g id="Preheater"><text fill="rgb(0, 0, 0)" font-family="Arial" font-size="12" text-anchor="middle" x="180.0" y="510">Preheater</text></g><g id="TowerT"><path d="M 320.0 140.0  L 300.0 140.0  A 20.0 20.0 0 1,1 340.0 140.0 Z" fill="rgb(255, 255, 255)" stroke="rgb(0, 0, 0)" stroke-width="2" /><rect fill="rgb(255, 255, 255)" height="260.0" stroke="rgb(0, 0, 0)" stroke-width="2" width="40" x="300" y="140.0" /><path d="M 320.0 400.0  L 340.0 400.0  A 20.0 20.0 0 1,1 300.0 400.0 Z" fill="rgb(255, 255, 255)" stroke="rgb(0, 0, 0)" stroke-width="2" /><line stroke="rgb(0, 0, 0)" stroke-width="2" x1="300" x2="340" y1="140.0" y2="244.0" /><line stroke="rgb(0, 0, 0)" stroke-width="2" x1="340" x2="300" y1="140.0" y2="244.0" /><line stroke="rgb(0, 0, 0)" stroke-width="2" x1="300" x2="340" y1="140.0" y2="140.0" /><line stroke="rgb(0, 0, 0)" stroke-width="2" x1="300" x2="340" y1="244.0" y2="244.0" /><line stroke="rgb(0, 0, 0)" stroke-width="2" x1="300" x2="340" y1="296.0" y2="400.0" /><line stroke="rgb(0, 0, 0)" stroke-width="2" x1="340" x2="300" y1="296.0" y2="400.0" /><line stroke="rgb(0, 0, 0)" stroke-width="2" x1="300" x2="340" y1="296.0" y2="296.0" /><line stroke="rgb(0, 0, 0)" stroke-width="2" x1="300" x2="340" y1="400.0" y2="400.0" /></g><g id="Tower"><text fill="rgb(0, 0, 0)" font-family="Arial" font-size="12" text-anchor="start" x="350" y="270.0">Tower</text></g><g id="MX1T"><rect fill="rgb(0, 0, 0)" height="10" stroke="rgb(0, 0, 0)" stroke-width="2" width="10" x="405" y="455" /></g><g id="MX1"><text fill="rgb(0, 0, 0)" font-family="Arial" font-size="12" text-anchor="middle" x="410.0" y="480">MX1</text></g><g id="SP1T"><rect fill="rgb(0, 0, 0)" height="10" stroke="rgb(0, 0, 0)" stroke-width="2" width="10" x="465" y="455" /></g><g id="SP1"><text fill="rgb(0, 0, 0)" font-family="Arial" font-size="12" text-anchor="middle" x="470.0" y="480">SP1</text></g><g id="ReboilerT" transform="translate(0,380.0) scale(1,-1) translate(0,-380.0)"><rect fill="rgb(255, 255, 255)" height="40" stroke="rgb(255, 255, 255)" stroke-width="2" width="40" x="390" y="360" /><line stroke="rgb(0, 0, 0)" stroke-width="2" x1="390" x2="390" y1="360" y2="400" /><line stroke="rgb(0, 0, 0)" stroke-width="2" x1="430" x2="430" y1="360" y2="400" /><path d="M 410.0 360.0  L 390.0 360.0  A 20.0 20.0 0 1,1 430.0 360.0 Z" fill="rgb(255, 255, 255)" stroke="rgb(0, 0, 0)" stroke-width="2" /><path d="M 410.0 400.0  L 430.0 400.0  A 20.0 20.0 0 1,1 390.0 400.0 Z" fill="rgb(255, 255, 255)" stroke="rgb(0, 0, 0)" stroke-width="2" /><line stroke="rgb(0, 0, 0)" stroke-width="2" x1="395.7142857142857" x2="395.7142857142857" y1="360" y2="400" /><line stroke="rgb(0, 0, 0)" stroke-width="2" x1="401.42857142857144" x2="401.42857142857144" y1="360" y2="400" /><line stroke="rgb(0, 0, 0)" stroke-width="2" x1="407.14285714285717" x2="407.14285714285717" y1="360" y2="400" /><line stroke="rgb(0, 0, 0)" stroke-width="2" x1="412.85714285714283" x2="412.85714285714283" y1="360" y2="400" /><line stroke="rgb(0, 0, 0)" stroke-width="2" x1="418.57142857142856" x2="418.57142857142856" y1="360" y2="400" /><line stroke="rgb(0, 0, 0)" stroke-width="2" x1="424.2857142857143" x2="424.2857142857143" y1="360" y2="400" /></g><g id="Reboiler"><text fill="rgb(0, 0, 0)" font-family="Arial" font-size="12" text-anchor="start" x="440" y="380.0">Reboiler</text></g><g id="CondenserT" transform="rotate(105,410.0,90.0 ) "><rect fill="rgb(255, 255, 255)" height="60.0" stroke="rgb(255, 255, 255)" stroke-width="2" width="40" x="390" y="60.0" /><line stroke="rgb(0, 0, 0)" stroke-width="2" x1="390" x2="390" y1="60.0" y2="120.0" /><line stroke="rgb(0, 0, 0)" stroke-width="2" x1="430" x2="430" y1="60.0" y2="120.0" /><path d="M 410.0 60.0  L 390.0 60.0  A 20.0 20.0 0 1,1 430.0 59.99999999999999 Z" fill="rgb(255, 255, 255)" stroke="rgb(0, 0, 0)" stroke-width="2" /><path d="M 410.0 120.0  L 430.0 120.0  A 20.0 20.0 0 1,1 390.0 120.0 Z" fill="rgb(255, 255, 255)" stroke="rgb(0, 0, 0)" stroke-width="2" /><line stroke="rgb(0, 0, 0)" stroke-width="2" x1="398.0" x2="398.0" y1="60.0" y2="120.0" /><line stroke="rgb(0, 0, 0)" stroke-width="2" x1="406.0" x2="406.0" y1="60.0" y2="120.0" /><line stroke="rgb(0, 0, 0)" stroke-width="2" x1="414.0" x2="414.0" y1="60.0" y2="120.0" /><line stroke="rgb(0, 0, 0)" stroke-width="2" x1="422.0" x2="422.0" y1="60.0" y2="120.0" /></g><g id="Condenser"><text fill="rgb(0, 0, 0)" font-family="Arial" font-size="12" text-anchor="middle" x="410.0" y="160">Condenser</text></g><g id="SP2T" transform="rotate(90,510.0,140.0 ) "><rect fill="rgb(0, 0, 0)" height="10" stroke="rgb(0, 0, 0)" stroke-width="2" width="10" x="505" y="135" /></g><g id="SP2"><text fill="rgb(0, 0, 0)" font-family="Arial" font-size="12" text-anchor="middle" x="510.0" y="160">SP2</text></g><g id="P1T"><path d="M 560 130.0  L 580.0 130.0  L 580.0 120  L 600 140.0  L 580.0 160  L 580.0 150.0  L 560 150.0  Z" fill="rgb(255, 255, 255)" stroke="rgb(0, 0, 0)" stroke-width="2" /></g><g id="P1"><text fill="rgb(0, 0, 0)" font-family="Arial" font-size="12" text-anchor="middle" x="580.0" y="180">P1</text></g><g id="P2T" transform="translate(20.0,0) scale(-1,1) translate(-20.0,0)"><path d="M 0 410.0  L 20.0 410.0  L 20.0 400  L 40 420.0  L 20.0 440  L 20.0 430.0  L 0 430.0  Z" fill="rgb(255, 255, 255)" stroke="rgb(0, 0, 0)" stroke-width="2" /></g><g id="P2"><text fill="rgb(0, 0, 0)" font-family="Arial" font-size="12" text-anchor="middle" x="20.0" y="460">P2</text></g><g id="P3T"><path d="M 560 10.0  L 580.0 10.0  L 580.0 0  L 600 20.0  L 580.0 40  L 580.0 30.0  L 560 30.0  Z" fill="rgb(255, 255, 255)" stroke="rgb(0, 0, 0)" stroke-width="2" /></g><g id="P3"><text fill="rgb(0, 0, 0)" font-family="Arial" font-size="12" text-anchor="middle" x="580.0" y="60">P3</text></g></svg>