<?xml version="1.0" encoding="utf-8" ?>
<svg baseProfile="full" height="390.0px" style="background-color:rgb(255, 255, 255)" version="1.1" viewBox="-40,150,540.0,260" width="810.0px" xmlns="http://www.w3.org/2000/svg" xmlns:ev="http://www.w3.org/2001/xml-events" xmlns:xlink="http://www.w3.org/1999/xlink"><defs><marker id="id4" markerHeight="4" markerWidth="4" orient="auto" refX="2" refY="2"><path d="M0,0 V4 L2,2 Z" stroke-width="1" /></marker></defs><g id="S1"><path d="M 40 260.0  L 40 260  L 170 260 " fill="none" marker-end="url(#id4)" stroke="rgb(0, 0, 0)" stroke-width="2" /><text fill="rgb(0, 0, 0)" font-family="Arial" font-size="10" text-anchor="middle" x="50" y="270">S1</text></g><g id="S2"><path d="M 310.0 260.0  L 310 260  L 400 260 " fill="none" marker-end="url(#id4)" stroke="rgb(0, 0, 0)" stroke-width="2" /><text fill="rgb(0, 0, 0)" font-family="Arial" font-size="10" text-anchor="middle" x="320" y="270">S2</text></g><g id="FeedT"><path d="M 0 250.0  L 20.0 250.0  L 20.0 240  L 40 260.0  L 20.0 280  L 20.0 270.0  L 0 270.0  Z" fill="rgb(255, 255, 255)" stroke="rgb(0, 0, 0)" stroke-width="2" /></g><g id="Feed"><text fill="rgb(0, 0, 0)" font-family="Arial" font-size="12" text-anchor="middle" x="20.0" y="300">Feed</text></g><g id="Heat-ExchangerT" transform="rotate(90,240.0,260.0 ) "><rect fill="rgb(255, 255, 255)" height="100" stroke="rgb(255, 255, 255)" stroke-width="2" width="80" x="200" y="210" /><line stroke="rgb(0, 0, 0)" stroke-width="2" x1="200" x2="200" y1="210" y2="310" /><line stroke="rgb(0, 0, 0)" stroke-width="2" x1="280" x2="280" y1="210" y2="310" /><path d="M 240.0 210.0  L 200.0 210.0  A 40.0 20.0 0 1,1 280.0 210.0 Z" fill="rgb(255, 255, 255)" stroke="rgb(0, 0, 0)" stroke-width="2" /><path d="M 240.0 310.0  L 280.0 310.0  A 40.0 20.0 0 1,1 200.0 310.0 Z" fill="rgb(255, 255, 255)" stroke="rgb(0, 0, 0)" stroke-width="2" /><line stroke="rgb(0, 0, 0)" stroke-width="2" x1="216.0" x2="216.0" y1="210" y2="310" /><line stroke="rgb(0, 0, 0)" stroke-width="2" x1="232.0" x2="232.0" y1="210" y2="310" /><line stroke="rgb(0, 0, 0)" stroke-width="2" x1="248.0" x2="248.0" y1="210" y2="310" /><line stroke="rgb(0, 0, 0)" stroke-width="2" x1="264.0" x2="264.0" y1="210" y2="310" /></g><g id="Heat-Exchanger"><text fill="rgb(0, 0, 0)" font-family="Arial" font-size="12" text-anchor="middle" x="240.0" y="350">Heat-Exchanger</text></g><g id="ProductT"><path d="M 400 250.0  L 420.0 250.0  L 420.0 240  L 440 260.0  L 420.0 280  L 420.0 270.0  L 400 270.0  Z" fill="rgb(255, 255, 255)" stroke="rgb(0, 0, 0)" stroke-width="2" /></g><g id="Product"><text fill="rgb(0, 0, 0)" font-family="Arial" font-size="12" text-anchor="middle" x="420.0" y="300">Product</text></g></svg>