<?xml version="1.0" encoding="utf-8" ?>
<svg baseProfile="full" height="760px" style="background-color:rgb(255, 255, 255)" version="1.1" viewBox="-40,320,540.0,760" width="540.0px" xmlns="http://www.w3.org/2000/svg" xmlns:ev="http://www.w3.org/2001/xml-events" xmlns:xlink="http://www.w3.org/1999/xlink"><defs><marker id="id1" markerHeight="4" markerWidth="4" orient="auto" refX="2" refY="2"><path d="M0,0 V4 L2,2 Z" stroke-width="1" /></marker></defs><g id="S1_1"><path d="M 40 460.0  L 40 460  L 110 460 " fill="none" marker-end="url(#id1)" stroke="rgb(0, 0, 0)" stroke-width="2" /><text fill="rgb(0, 0, 0)" font-family="Arial" font-size="10" text-anchor="middle" x="50" y="470">S1_1</text></g><g id="S2_1"><path d="M 310.0 460.0  L 310 460  L 400 460 " fill="none" marker-end="url(#id1)" stroke="rgb(0, 0, 0)" stroke-width="2" /><text fill="rgb(0, 0, 0)" font-family="Arial" font-size="10" text-anchor="middle" x="320" y="470">S2_1</text></g><g id="S1_2"><path d="M 40 640.0  L 40 640  L 110 640  L 114.0 635.0 " fill="none" marker-end="url(#id1)" stroke="rgb(0, 0, 0)" stroke-width="2" /><text fill="rgb(0, 0, 0)" font-family="Arial" font-size="10" text-anchor="middle" x="50" y="650">S1_2</text></g><g id="S2_2"><path d="M 114.0 605.0  L 110 600  L 40 600 " fill="none" marker-end="url(#id1)" stroke="rgb(0, 0, 0)" stroke-width="2" /><text fill="rgb(0, 0, 0)" font-family="Arial" font-size="10" text-anchor="middle" x="100" y="610">S2_2</text></g><g id="S1_3"><path d="M 40 800.0  L 40 800  L 110 800  L 114.0 795.0 " fill="none" marker-end="url(#id1)" stroke="rgb(0, 0, 0)" stroke-width="2" /><text fill="rgb(0, 0, 0)" font-family="Arial" font-size="10" text-anchor="middle" x="50" y="810">S1_3</text></g><g id="S2_3"><path d="M 306.0 765.0  L 310 760  L 400 760 " fill="none" marker-end="url(#id1)" stroke="rgb(0, 0, 0)" stroke-width="2" /><text fill="rgb(0, 0, 0)" font-family="Arial" font-size="10" text-anchor="middle" x="320" y="770">S2_3</text></g><g id="S1_4"><path d="M 40 960.0  L 40 960  L 110 960  L 114.0 960.0 " fill="none" marker-end="url(#id1)" stroke="rgb(0, 0, 0)" stroke-width="2" /><text fill="rgb(0, 0, 0)" font-family="Arial" font-size="10" text-anchor="middle" x="50" y="970">S1_4</text></g><g id="S2_4"><path d="M 114.0 920.0  L 110 920  L 40 920 " fill="none" marker-end="url(#id1)" stroke="rgb(0, 0, 0)" stroke-width="2" /><text fill="rgb(0, 0, 0)" font-family="Arial" font-size="10" text-anchor="middle" x="100" y="930">S2_4</text></g><g id="Feed_1T"><path d="M 0 450.0  L 20.0 450.0  L 20.0 440  L 40 460.0  L 20.0 480  L 20.0 470.0  L 0 470.0  Z" fill="rgb(255, 255, 255)" stroke="rgb(0, 0, 0)" stroke-width="2" /></g><g id="Feed_1"><text fill="rgb(0, 0, 0)" font-family="Arial" font-size="12" text-anchor="middle" x="20.0" y="500">Feed_1</text></g><g id="Heat-Exchanger_1T" transform="rotate(90,210.0,460.0 ) "><rect fill="rgb(255, 255, 255)" height="160" stroke="rgb(255, 255, 255)" stroke-width="2" width="60" x="180" y="380" /><line stroke="rgb(0, 0, 0)" stroke-width="2" x1="180" x2="180" y1="380" y2="540" /><line stroke="rgb(0, 0, 0)" stroke-width="2" x1="240" x2="240" y1="380" y2="540" /><path d="M 210.0 380.0  L 180.0 380.0  A 30.0 20.0 0 1,1 240.0 380.0 Z" fill="rgb(255, 255, 255)" stroke="rgb(0, 0, 0)" stroke-width="2" /><path d="M 210.0 540.0  L 240.0 540.0  A 30.0 20.0 0 1,1 180.0 540.0 Z" fill="rgb(255, 255, 255)" stroke="rgb(0, 0, 0)" stroke-width="2" /><line stroke="rgb(0, 0, 0)" stroke-width="2" x1="186.0" x2="186.0" y1="380" y2="540" /><line stroke="rgb(0, 0, 0)" stroke-width="2" x1="192.0" x2="192.0" y1="380" y2="540" /><line stroke="rgb(0, 0, 0)" stroke-width="2" x1="198.0" x2="198.0" y1="380" y2="540" /><line stroke="rgb(0, 0, 0)" stroke-width="2" x1="204.0" x2="204.0" y1="380" y2="540" /><line stroke="rgb(0, 0, 0)" stroke-width="2" x1="210.0" x2="210.0" y1="380" y2="540" /><line stroke="rgb(0, 0, 0)" stroke-width="2" x1="216.0" x2="216.0" y1="380" y2="540" /><line stroke="rgb(0, 0, 0)" stroke-width="2" x1="222.0" x2="222.0" y1="380" y2="540" /><line stroke="rgb(0, 0, 0)" stroke-width="2" x1="228.0" x2="228.0" y1="380" y2="540" /><line stroke="rgb(0, 0, 0)" stroke-width="2" x1="234.0" x2="234.0" y1="380" y2="540" /><line stroke="rgb(0, 0, 0)" stroke-width="2" x1="180" x2="228.0" y1="380.0" y2="380.0" /><line stroke="rgb(0, 0, 0)" stroke-width="2" x1="192.0" x2="240" y1="412.0" y2="412.0" /><line stroke="rgb(0, 0, 0)" stroke-width="2" x1="180" x2="228.0" y1="444.0" y2="444.0" /><line stroke="rgb(0, 0, 0)" stroke-width="2" x1="192.0" x2="240" y1="476.0" y2="476.0" /><line stroke="rgb(0, 0, 0)" stroke-width="2" x1="180" x2="228.0" y1="508.0" y2="508.0" /></g><g id="Heat-Exchanger_1"><text fill="rgb(0, 0, 0)" font-family="Arial" font-size="12" text-anchor="middle" x="210.0" y="520">Heat-Exchanger_1</text></g><g id="Product_1T"><path d="M 400 450.0  L 420.0 450.0  L 420.0 440  L 440 460.0  L 420.0 480  L 420.0 470.0  L 400 470.0  Z" fill="rgb(255, 255, 255)" stroke="rgb(0, 0, 0)" stroke-width="2" /></g><g id="Product_1"><text fill="rgb(0, 0, 0)" font-family="Arial" font-size="12" text-anchor="middle" x="420.0" y="500">Product_1</text></g><g id="Feed_2T"><path d="M 0 630.0  L 20.0 630.0  L 20.0 620  L 40 640.0  L 20.0 660  L 20.0 650.0  L 0 650.0  Z" fill="rgb(255, 255, 255)" stroke="rgb(0, 0, 0)" stroke-width="2" /></g><g id="Feed_2"><text fill="rgb(0, 0, 0)" font-family="Arial" font-size="12" text-anchor="middle" x="20.0" y="680">Feed_2</text></g><g id="Heat-Exchanger_2T" transform="rotate(90,210.0,620.0 ) "><rect fill="rgb(255, 255, 255)" height="160" stroke="rgb(255, 255, 255)" stroke-width="2" width="60" x="180" y="540" /><line stroke="rgb(0, 0, 0)" stroke-width="2" x1="180" x2="180" y1="540" y2="700" /><line stroke="rgb(0, 0, 0)" stroke-width="2" x1="240" x2="240" y1="540" y2="700" /><path d="M 210.0 540.0  L 180.0 540.0  A 30.0 20.0 0 1,1 240.0 540.0 Z" fill="rgb(255, 255, 255)" stroke="rgb(0, 0, 0)" stroke-width="2" /><path d="M 210.0 700.0  L 240.0 700.0  A 30.0 20.0 0 1,1 180.0 700.0 Z" fill="rgb(255, 255, 255)" stroke="rgb(0, 0, 0)" stroke-width="2" /><line stroke="rgb(0, 0, 0)" stroke-width="2" x1="186.0" x2="186.0" y1="540" y2="700" /><line stroke="rgb(0, 0, 0)" stroke-width="2" x1="192.0" x2="192.0" y1="540" y2="700" /><line stroke="rgb(0, 0, 0)" stroke-width="2" x1="198.0" x2="198.0" y1="540" y2="700" /><line stroke="rgb(0, 0, 0)" stroke-width="2" x1="204.0" x2="204.0" y1="540" y2="700" /><line stroke="rgb(0, 0, 0)" stroke-width="2" x1="210.0" x2="210.0" y1="540" y2="700" /><line stroke="rgb(0, 0, 0)" stroke-width="2" x1="216.0" x2="216.0" y1="540" y2="700" /><line stroke="rgb(0, 0, 0)" stroke-width="2" x1="222.0" x2="222.0" y1="540" y2="700" /><line stroke="rgb(0, 0, 0)" stroke-width="2" x1="228.0" x2="228.0" y1="540" y2="700" /><line stroke="rgb(0, 0, 0)" stroke-width="2" x1="234.0" x2="234.0" y1="540" y2="700" /><line stroke="rgb(0, 0, 0)" stroke-width="2" x1="210.0" x2="210.0" y1="540" y2="530.0" /><line stroke="rgb(0, 0, 0)" stroke-width="2" x1="210.0" x2="210.0" y1="720" y2="700" /><line stroke="rgb(0, 0, 0)" stroke-width="2" x1="180" x2="228.0" y1="540.0" y2="540.0" /><line stroke="rgb(0, 0, 0)" stroke-width="2" x1="192.0" x2="240" y1="572.0" y2="572.0" /><line stroke="rgb(0, 0, 0)" stroke-width="2" x1="180" x2="228.0" y1="604.0" y2="604.0" /><line stroke="rgb(0, 0, 0)" stroke-width="2" x1="192.0" x2="240" y1="636.0" y2="636.0" /><line stroke="rgb(0, 0, 0)" stroke-width="2" x1="180" x2="228.0" y1="668.0" y2="668.0" /></g><g id="Heat-Exchanger_2"><text fill="rgb(0, 0, 0)" font-family="Arial" font-size="12" text-anchor="middle" x="210.0" y="680">Heat-Exchanger_2</text></g><g id="Product_2T" transform="translate(20.0,0) scale(-1,1) translate(-20.0,0)"><path d="M 0 590.0  L 20.0 590.0  L 20.0 580  L 40 600.0  L 20.0 620  L 20.0 610.0  L 0 610.0  Z" fill="rgb(255, 255, 255)" stroke="rgb(0, 0, 0)" stroke-width="2" /></g><g id="Product_2"><text fill="rgb(0, 0, 0)" font-family="Arial" font-size="12" text-anchor="middle" x="20.0" y="640">Product_2</text></g><g id="Feed_3T"><path d="M 0 790.0  L 20.0 790.0  L 20.0 780  L 40 800.0  L 20.0 820  L 20.0 810.0  L 0 810.0  Z" fill="rgb(255, 255, 255)" stroke="rgb(0, 0, 0)" stroke-width="2" /></g><g id="Feed_3"><text fill="rgb(0, 0, 0)" font-family="Arial" font-size="12" text-anchor="middle" x="20.0" y="840">Feed_3</text></g><g id="Heat-Exchanger_3T" transform="rotate(90,210.0,780.0 ) "><rect fill="rgb(255, 255, 255)" height="160" stroke="rgb(255, 255, 255)" stroke-width="2" width="60" x="180" y="700" /><line stroke="rgb(0, 0, 0)" stroke-width="2" x1="180" x2="180" y1="700" y2="860" /><line stroke="rgb(0, 0, 0)" stroke-width="2" x1="240" x2="240" y1="700" y2="860" /><path d="M 210.0 700.0  L 180.0 700.0  A 30.0 20.0 0 1,1 240.0 700.0 Z" fill="rgb(255, 255, 255)" stroke="rgb(0, 0, 0)" stroke-width="2" /><path d="M 210.0 860.0  L 240.0 860.0  A 30.0 20.0 0 1,1 180.0 860.0 Z" fill="rgb(255, 255, 255)" stroke="rgb(0, 0, 0)" stroke-width="2" /><line stroke="rgb(0, 0, 0)" stroke-width="2" x1="186.0" x2="186.0" y1="700" y2="860" /><line stroke="rgb(0, 0, 0)" stroke-width="2" x1="192.0" x2="192.0" y1="700" y2="860" /><line stroke="rgb(0, 0, 0)" stroke-width="2" x1="198.0" x2="198.0" y1="700" y2="860" /><line stroke="rgb(0, 0, 0)" stroke-width="2" x1="204.0" x2="204.0" y1="700" y2="860" /><line stroke="rgb(0, 0, 0)" stroke-width="2" x1="210.0" x2="210.0" y1="700" y2="860" /><line stroke="rgb(0, 0, 0)" stroke-width="2" x1="216.0" x2="216.0" y1="700" y2="860" /><line stroke="rgb(0, 0, 0)" stroke-width="2" x1="222.0" x2="222.0" y1="700" y2="860" /><line stroke="rgb(0, 0, 0)" stroke-width="2" x1="228.0" x2="228.0" y1="700" y2="860" /><line stroke="rgb(0, 0, 0)" stroke-width="2" x1="234.0" x2="234.0" y1="700" y2="860" /><line stroke="rgb(0, 0, 0)" stroke-width="2" x1="220.0" x2="220.0" y1="700" y2="690.0" /><line stroke="rgb(0, 0, 0)" stroke-width="2" x1="220.0" x2="220.0" y1="880" y2="860" /><line stroke="rgb(0, 0, 0)" stroke-width="2" x1="200.0" x2="200.0" y1="680" y2="700" /><line stroke="rgb(0, 0, 0)" stroke-width="2" x1="200.0" x2="200.0" y1="860" y2="870.0" /><line stroke="rgb(0, 0, 0)" stroke-width="2" x1="180" x2="228.0" y1="700.0" y2="700.0" /><line stroke="rgb(0, 0, 0)" stroke-width="2" x1="192.0" x2="240" y1="732.0" y2="732.0" /><line stroke="rgb(0, 0, 0)" stroke-width="2" x1="180" x2="228.0" y1="764.0" y2="764.0" /><line stroke="rgb(0, 0, 0)" stroke-width="2" x1="192.0" x2="240" y1="796.0" y2="796.0" /><line stroke="rgb(0, 0, 0)" stroke-width="2" x1="180" x2="228.0" y1="828.0" y2="828.0" /></g><g id="Heat-Exchanger_3"><text fill="rgb(0, 0, 0)" font-family="Arial" font-size="12" text-anchor="middle" x="210.0" y="840">Heat-Exchanger_3</text></g><g id="Product_3T"><path d="M 400 750.0  L 420.0 750.0  L 420.0 740  L 440 760.0  L 420.0 780  L 420.0 770.0  L 400 770.0  Z" fill="rgb(255, 255, 255)" stroke="rgb(0, 0, 0)" stroke-width="2" /></g><g id="Product_3"><text fill="rgb(0, 0, 0)" font-family="Arial" font-size="12" text-anchor="middle" x="420.0" y="800">Product_3</text></g><g id="Feed_4T"><path d="M 0 950.0  L 20.0 950.0  L 20.0 940  L 40 960.0  L 20.0 980  L 20.0 970.0  L 0 970.0  Z" fill="rgb(255, 255, 255)" stroke="rgb(0, 0, 0)" stroke-width="2" /></g><g id="Feed_4"><text fill="rgb(0, 0, 0)" font-family="Arial" font-size="12" text-anchor="middle" x="20.0" y="1000">Feed_4</text></g><g id="Heat-Exchanger_4T" transform="rotate(90,210.0,940.0 ) "><rect fill="rgb(255, 255, 255)" height="160" stroke="rgb(255, 255, 255)" stroke-width="2" width="60" x="180" y="860" /><line stroke="rgb(0, 0, 0)" stroke-width="2" x1="180" x2="180" y1="860" y2="1020" /><line stroke="rgb(0, 0, 0)" stroke-width="2" x1="240" x2="240" y1="860" y2="1020" /><path d="M 210.0 860.0  L 180.0 860.0  A 30.0 20.0 0 1,1 240.0 860.0 Z" fill="rgb(255, 255, 255)" stroke="rgb(0, 0, 0)" stroke-width="2" /><path d="M 210.0 1020.0  L 240.0 1020.0  A 30.0 20.0 0 1,1 180.0 1020.0 Z" fill="rgb(255, 255, 255)" stroke="rgb(0, 0, 0)" stroke-width="2" /><line stroke="rgb(0, 0, 0)" stroke-width="2" x1="186.0" x2="186.0" y1="860" y2="1020" /><line stroke="rgb(0, 0, 0)" stroke-width="2" x1="192.0" x2="192.0" y1="860" y2="1020" /><line stroke="rgb(0, 0, 0)" stroke-width="2" x1="198.0" x2="198.0" y1="860" y2="1020" /><line stroke="rgb(0, 0, 0)" stroke-width="2" x1="204.0" x2="204.0" y1="860" y2="1020" /><line stroke="rgb(0, 0, 0)" stroke-width="2" x1="210.0" x2="210.0" y1="860" y2="1020" /><line stroke="rgb(0, 0, 0)" stroke-width="2" x1="216.0" x2="216.0" y1="860" y2="1020" /><line stroke="rgb(0, 0, 0)" stroke-width="2" x1="222.0" x2="222.0" y1="860" y2="1020" /><line stroke="rgb(0, 0, 0)" stroke-width="2" x1="228.0" x2="228.0" y1="860" y2="1020" /><line stroke="rgb(0, 0, 0)" stroke-width="2" x1="234.0" x2="234.0" y1="860" y2="1020" /><line stroke="rgb(0, 0, 0)" stroke-width="2" x1="225.0" x2="225.0" y1="860" y2="850.0" /><line stroke="rgb(0, 0, 0)" stroke-width="2" x1="225.0" x2="225.0" y1="1040" y2="1020" /><line stroke="rgb(0, 0, 0)" stroke-width="2" x1="210.0" x2="210.0" y1="840" y2="860" /><line stroke="rgb(0, 0, 0)" stroke-width="2" x1="210.0" x2="210.0" y1="1020" y2="1030.0" /><line stroke="rgb(0, 0, 0)" stroke-width="2" x1="195.0" x2="195.0" y1="860" y2="850.0" /><line stroke="rgb(0, 0, 0)" stroke-width="2" x1="195.0" x2="195.0" y1="1040" y2="1020" /><line stroke="rgb(0, 0, 0)" stroke-width="2" x1="180" x2="228.0" y1="860.0" y2="860.0" /><line stroke="rgb(0, 0, 0)" stroke-width="2" x1="192.0" x2="240" y1="892.0" y2="892.0" /><line stroke="rgb(0, 0, 0)" stroke-width="2" x1="180" x2="228.0" y1="924.0" y2="924.0" /><line stroke="rgb(0, 0, 0)" stroke-width="2" x1="192.0" x2="240" y1="956.0" y2="956.0" /><line stroke="rgb(0, 0, 0)" stroke-width="2" x1="180" x2="228.0" y1="988.0" y2="988.0" /></g><g id="Heat-Exchanger_4"><text fill="rgb(0, 0, 0)" font-family="Arial" font-size="12" text-anchor="middle" x="210.0" y="1000">Heat-Exchanger_4</text></g><g id="Product_4T" transform="translate(20.0,0) scale(-1,1) translate(-20.0,0)"><path d="M 0 910.0  L 20.0 910.0  L 20.0 900  L 40 920.0  L 20.0 940  L 20.0 930.0  L 0 930.0  Z" fill="rgb(255, 255, 255)" stroke="rgb(0, 0, 0)" stroke-width="2" /></g><g id="Product_4"><text fill="rgb(0, 0, 0)" font-family="Arial" font-size="12" text-anchor="middle" x="20.0" y="960">Product_4</text></g></svg>