<?xml version="1.0" encoding="utf-8" ?>
<svg baseProfile="full" height="370px" version="1.1" viewBox="-40,40,640.0,370" width="640.0px" xmlns="http://www.w3.org/2000/svg" xmlns:ev="http://www.w3.org/2001/xml-events" xmlns:xlink="http://www.w3.org/1999/xlink"><defs><marker id="id8" markerHeight="4" markerWidth="4" orient="auto" refX="2" refY="2"><path d="M0,0 V4 L2,2 Z" stroke-width="1" /></marker></defs><g id="S01"><path d="M 40 220.0  L 40 220  L 160 220 " fill="none" marker-end="url(#id8)" stroke="rgb(0, 0, 0)" stroke-width="2" /><text fill="rgb(0, 0, 0)" font-family="Arial" font-size="10" text-anchor="middle" x="50" y="230">S01</text></g><g id="S02"><path d="M 200 220.0  L 200 220  L 300 220 " fill="none" marker-end="url(#id8)" stroke="rgb(0, 0, 0)" stroke-width="2" /><text fill="rgb(0, 0, 0)" font-family="Arial" font-size="10" text-anchor="middle" x="210" y="230">S02</text></g><g id="S03"><path d="M 380.0 140.0  L 380 140  L 500 140 " fill="none" marker-end="url(#id8)" stroke="rgb(0, 0, 0)" stroke-width="2" /><text fill="rgb(0, 0, 0)" font-family="Arial" font-size="10" text-anchor="middle" x="390" y="150">S03</text></g><g id="S04"><path d="M 380.0 340.0  L 380 340  L 390 340  L 390 370  L 290 370  L 290 250  L 180 250  L 180 240 " fill="none" marker-end="url(#id8)" stroke="rgb(0, 0, 0)" stroke-width="2" /><text fill="rgb(0, 0, 0)" font-family="Arial" font-size="10" text-anchor="middle" x="390" y="350">S04</text></g><g id="S05"><path d="M 180.0 200  L 180 200  L 180 140  L 40 140 " fill="none" marker-end="url(#id8)" stroke="rgb(0, 0, 0)" stroke-width="2" /><text fill="rgb(0, 0, 0)" font-family="Arial" font-size="10" text-anchor="middle" x="180" y="200">S05</text></g><g id="F100T"><path d="M 0 210.0  L 20.0 210.0  L 20.0 200  L 40 220.0  L 20.0 240  L 20.0 230.0  L 0 230.0  Z" fill="rgb(255, 255, 255)" stroke="rgb(0, 0, 0)" stroke-width="2" /></g><g id="F100"><text fill="rgb(0, 0, 0)" font-family="Arial" font-size="12" text-anchor="middle" x="20.0" y="260">F100</text></g><g id="DS10-WA10T" transform="translate(0,220.0) scale(1,-1) translate(0,-220.0)"><circle cx="180.0" cy="220.0" fill="rgb(255, 255, 255)" r="20.0" stroke="rgb(0, 0, 0)" stroke-width="2" /><path d="M 160 220.0  L 166.66666666666666 220.0  L 173.33333333333334 210.0  L 186.66666666666666 230.0  L 193.33333333333334 220.0  L 200 220.0 " fill="none" stroke="rgb(0, 0, 0)" stroke-width="2" /></g><g id="DS10-WA10"><text fill="rgb(0, 0, 0)" font-family="Arial" font-size="12" text-anchor="middle" x="180.0" y="260">DS10-WA10</text></g><g id="DS10-KA10T"><rect fill-opacity="0" height="40.0" stroke="rgb(0, 0, 0)" stroke-width="2" width="40.0" x="320.0" y="100.0" /><circle cx="360.0" cy="100.0" fill="rgb(255, 255, 255)" r="20.0" stroke="rgb(0, 0, 0)" stroke-width="2" /><line stroke="rgb(0, 0, 0)" stroke-width="2" x1="360.0" x2="380" y1="140.0" y2="140.0" /><rect fill-opacity="0" height="40.0" stroke="rgb(0, 0, 0)" stroke-width="2" width="40.0" x="320.0" y="300.0" /><circle cx="360.0" cy="340.0" fill="rgb(255, 255, 255)" r="20.0" stroke="rgb(0, 0, 0)" stroke-width="2" /><path d="M 320.0 140.0  L 300.0 140.0  A 20.0 20.0 0 1,1 340.0 140.0 Z" fill="rgb(255, 255, 255)" stroke="rgb(0, 0, 0)" stroke-width="2" /><rect fill="rgb(255, 255, 255)" height="160.0" stroke="rgb(0, 0, 0)" stroke-width="2" width="40" x="300" y="140.0" /><path d="M 320.0 300.0  L 340.0 300.0  A 20.0 20.0 0 1,1 300.0 300.0 Z" fill="rgb(255, 255, 255)" stroke="rgb(0, 0, 0)" stroke-width="2" /><line stroke="rgb(0, 0, 0)" stroke-width="2" x1="300" x2="340" y1="140.0" y2="200.0" /><line stroke="rgb(0, 0, 0)" stroke-width="2" x1="340" x2="300" y1="140.0" y2="200.0" /><line stroke="rgb(0, 0, 0)" stroke-width="2" x1="300" x2="340" y1="200.0" y2="200.0" /><line stroke="rgb(0, 0, 0)" stroke-width="2" x1="300" x2="340" y1="240.0" y2="300.0" /><line stroke="rgb(0, 0, 0)" stroke-width="2" x1="340" x2="300" y1="240.0" y2="300.0" /><line stroke="rgb(0, 0, 0)" stroke-width="2" x1="300" x2="340" y1="240.0" y2="240.0" /></g><g id="DS10-KA10"><text fill="rgb(0, 0, 0)" font-family="Arial" font-size="12" text-anchor="start" x="350" y="220.0">DS10-KA10</text></g><g id="P1T"><path d="M 500 130.0  L 520.0 130.0  L 520.0 120  L 540 140.0  L 520.0 160  L 520.0 150.0  L 500 150.0  Z" fill="rgb(255, 255, 255)" stroke="rgb(0, 0, 0)" stroke-width="2" /></g><g id="P1"><text fill="rgb(0, 0, 0)" font-family="Arial" font-size="12" text-anchor="middle" x="520.0" y="180">P1</text></g><g id="P2T" transform="translate(20.0,0) scale(-1,1) translate(-20.0,0)"><path d="M 0 130.0  L 20.0 130.0  L 20.0 120  L 40 140.0  L 20.0 160  L 20.0 150.0  L 0 150.0  Z" fill="rgb(255, 255, 255)" stroke="rgb(0, 0, 0)" stroke-width="2" /></g><g id="P2"><text fill="rgb(0, 0, 0)" font-family="Arial" font-size="12" text-anchor="middle" x="20.0" y="180">P2</text></g></svg>