<?xml version="1.0" encoding="utf-8" ?>
<svg baseProfile="full" height="700px" version="1.1" viewBox="-120,0,920.0,700" width="920.0px" xmlns="http://www.w3.org/2000/svg" xmlns:ev="http://www.w3.org/2001/xml-events" xmlns:xlink="http://www.w3.org/1999/xlink"><defs><marker id="id10" markerHeight="4" markerWidth="4" orient="auto" refX="2" refY="2"><path d="M0,0 V4 L2,2 Z" stroke-width="1" /></marker></defs><g id="S01"><path d="M -40 500.0  L -40 500  L 60 500 " fill="none" marker-end="url(#id10)" stroke="rgb(0, 0, 0)" stroke-width="2" /><text fill="rgb(0, 0, 0)" font-family="Arial" font-size="10" text-anchor="middle" x="-30" y="510">S01</text></g><g id="S02"><path d="M 100 500.0  L 100 500  L 110 500  L 110 410  L 190 410  L 190 400 " fill="none" marker-end="url(#id10)" stroke="rgb(0, 0, 0)" stroke-width="2" /><text fill="rgb(0, 0, 0)" font-family="Arial" font-size="10" text-anchor="middle" x="110" y="510">S02</text></g><g id="S03"><path d="M 190.0 280  L 190 280  L 190 260  L 260 260 " fill="none" marker-end="url(#id10)" stroke="rgb(0, 0, 0)" stroke-width="2" /><text fill="rgb(0, 0, 0)" font-family="Arial" font-size="10" text-anchor="middle" x="190" y="280">S03</text></g><g id="S07"><path d="M 300 260.0  L 300 260  L 360 260 " fill="none" marker-end="url(#id10)" stroke="rgb(0, 0, 0)" stroke-width="2" /><text fill="rgb(0, 0, 0)" font-family="Arial" font-size="10" text-anchor="middle" x="310" y="270">S07</text></g><g id="S04"><path d="M 480.0 450.0  L 480 450  L 560 450 " fill="none" marker-end="url(#id10)" stroke="rgb(0, 0, 0)" stroke-width="2" /><text fill="rgb(0, 0, 0)" font-family="Arial" font-size="10" text-anchor="middle" x="490" y="460">S04</text></g><g id="S05"><path d="M 390.0 100  L 390 100  L 390 60  L 700 60 " fill="none" marker-end="url(#id10)" stroke="rgb(255, 0, 0)" stroke-dasharray="10 10" stroke-width="2" /><text fill="rgb(0, 0, 0)" font-family="Arial" font-size="10" text-anchor="middle" x="390" y="100">S05</text></g><g id="S06"><path d="M 660 450.0  L 660 450  L 750 450  L 750 600  L 740 600 " fill="none" marker-end="url(#id10)" stroke="rgb(0, 0, 0)" stroke-width="2" /><text fill="rgb(0, 0, 0)" font-family="Arial" font-size="10" text-anchor="middle" x="670" y="460">S06</text></g><g id="S08"><path d="M 700 600.0  L 700 600  L -40 600 " fill="none" marker-end="url(#id10)" stroke="rgb(0, 0, 0)" stroke-width="2" /><text fill="rgb(0, 0, 0)" font-family="Arial" font-size="10" text-anchor="middle" x="690" y="610">S08</text></g><g id="F100T"><path d="M -80 490.0  L -60.0 490.0  L -60.0 480  L -40 500.0  L -60.0 520  L -60.0 510.0  L -80 510.0  Z" fill="rgb(255, 255, 255)" stroke="rgb(0, 0, 0)" stroke-width="2" /></g><g id="F100"><text fill="rgb(0, 0, 0)" font-family="Arial" font-size="12" text-anchor="middle" x="-60.0" y="540">F100</text></g><g id="DS10-PA10T"><circle cx="80.0" cy="500.0" fill="rgb(255, 255, 255)" r="20.0" stroke="rgb(0, 0, 0)" stroke-width="2" /><line stroke="rgb(0, 0, 0)" stroke-width="2" x1="80.0" x2="100" y1="480" y2="500.0" /><line stroke="rgb(0, 0, 0)" stroke-width="2" x1="80.0" x2="100" y1="520" y2="500.0" /></g><g id="DS10-PA10"><text fill="rgb(0, 0, 0)" font-family="Arial" font-size="12" text-anchor="middle" x="80.0" y="540">DS10-PA10</text></g><g id="DS10-WA10T"><path d="M 190.0 300.0  L 160.0 300.0  A 30.0 20.0 0 1,1 220.0 300.0 Z" fill="rgb(255, 255, 255)" stroke="rgb(0, 0, 0)" stroke-width="2" /><rect fill="rgb(255, 255, 255)" height="80" stroke="rgb(0, 0, 0)" stroke-width="2" width="60" x="160" y="300" /><path d="M 190.0 380.0  L 220.0 380.0  A 30.0 20.0 0 1,1 160.0 380.0 Z" fill="rgb(255, 255, 255)" stroke="rgb(0, 0, 0)" stroke-width="2" /><line stroke="rgb(0, 0, 0)" stroke-width="2" x1="172.0" x2="172.0" y1="300" y2="380" /><line stroke="rgb(0, 0, 0)" stroke-width="2" x1="184.0" x2="184.0" y1="300" y2="380" /><line stroke="rgb(0, 0, 0)" stroke-width="2" x1="196.0" x2="196.0" y1="300" y2="380" /><line stroke="rgb(0, 0, 0)" stroke-width="2" x1="208.0" x2="208.0" y1="300" y2="380" /></g><g id="DS10-WA10"><text fill="rgb(0, 0, 0)" font-family="Arial" font-size="12" text-anchor="middle" x="190.0" y="420">DS10-WA10</text></g><g id="DS10-VA10T"><path d="M 260 250  L 300 270  L 300 250  L 260 270  Z" fill="rgb(255, 255, 255)" stroke="rgb(0, 0, 0)" stroke-width="2" /></g><g id="DS10-VA10"><text fill="rgb(0, 0, 0)" font-family="Arial" font-size="12" text-anchor="middle" x="280.0" y="290">DS10-VA10</text></g><g id="DS10-KA10T"><rect fill-opacity="0" height="60.0" stroke="rgb(0, 0, 0)" stroke-width="2" width="60.0" x="390.0" y="390.0" /><circle cx="450.0" cy="450.0" fill="rgb(255, 255, 255)" r="30.0" stroke="rgb(0, 0, 0)" stroke-width="2" /><path d="M 390.0 130.0  L 360.0 130.0  A 30.0 30.0 0 1,1 420.0 130.0 Z" fill="rgb(255, 255, 255)" stroke="rgb(0, 0, 0)" stroke-width="2" /><rect fill="rgb(255, 255, 255)" height="260.0" stroke="rgb(0, 0, 0)" stroke-width="2" width="60" x="360" y="130.0" /><path d="M 390.0 390.0  L 420.0 390.0  A 30.0 30.0 0 1,1 360.0 390.0 Z" fill="rgb(255, 255, 255)" stroke="rgb(0, 0, 0)" stroke-width="2" /><line stroke="rgb(0, 0, 0)" stroke-width="2" x1="360" x2="408.0" y1="130.0" y2="130.0" /><line stroke="rgb(0, 0, 0)" stroke-width="2" x1="372.0" x2="420" y1="153.63636363636363" y2="153.63636363636363" /><line stroke="rgb(0, 0, 0)" stroke-width="2" x1="360" x2="408.0" y1="177.27272727272728" y2="177.27272727272728" /><line stroke="rgb(0, 0, 0)" stroke-width="2" x1="372.0" x2="420" y1="200.9090909090909" y2="200.9090909090909" /><line stroke="rgb(0, 0, 0)" stroke-width="2" x1="360" x2="408.0" y1="224.54545454545456" y2="224.54545454545456" /><line stroke="rgb(0, 0, 0)" stroke-width="2" x1="372.0" x2="420" y1="248.1818181818182" y2="248.1818181818182" /><line stroke="rgb(0, 0, 0)" stroke-width="2" x1="360" x2="408.0" y1="271.8181818181818" y2="271.8181818181818" /><line stroke="rgb(0, 0, 0)" stroke-width="2" x1="372.0" x2="420" y1="295.4545454545455" y2="295.4545454545455" /><line stroke="rgb(0, 0, 0)" stroke-width="2" x1="360" x2="408.0" y1="319.0909090909091" y2="319.0909090909091" /><line stroke="rgb(0, 0, 0)" stroke-width="2" x1="372.0" x2="420" y1="342.72727272727275" y2="342.72727272727275" /><line stroke="rgb(0, 0, 0)" stroke-width="2" x1="360" x2="408.0" y1="366.3636363636364" y2="366.3636363636364" /></g><g id="DS10-KA10"><text fill="rgb(0, 0, 0)" font-family="Arial" font-size="12" text-anchor="start" x="430" y="260.0">DS10-KA10</text></g><g id="DS10-BA11T"><path d="M 580.0 450.0  L 580.0 470.0  A 20.0 20.0 0 1,1 580.0 430.0 Z" fill="rgb(255, 255, 255)" stroke="rgb(0, 0, 0)" stroke-width="2" /><rect fill="rgb(255, 255, 255)" height="40" stroke="rgb(0, 0, 0)" stroke-width="2" width="60" x="580" y="430" /><path d="M 640.0 450.0  L 640.0 430.0  A 20.0 20.0 0 1,1 640.0 470.0 Z" fill="rgb(255, 255, 255)" stroke="rgb(0, 0, 0)" stroke-width="2" /><line stroke="rgb(0, 0, 0)" stroke-width="2" x1="580" x2="640" y1="430" y2="470" /><line stroke="rgb(0, 0, 0)" stroke-width="2" x1="580" x2="640" y1="470" y2="430" /></g><g id="DS10-BA11"><text fill="rgb(0, 0, 0)" font-family="Arial" font-size="12" text-anchor="middle" x="610.0" y="490">DS10-BA11</text></g><g id="P1T"><path d="M 700 50.0  L 720.0 50.0  L 720.0 40  L 740 60.0  L 720.0 80  L 720.0 70.0  L 700 70.0  Z" fill="rgb(255, 255, 255)" stroke="rgb(0, 0, 0)" stroke-width="2" /></g><g id="P1"><text fill="rgb(0, 0, 0)" font-family="Arial" font-size="12" text-anchor="middle" x="720.0" y="100">P1</text></g><g id="P2T" transform="translate(-60.0,0) scale(-1,1) translate(60.0,0)"><path d="M -80 590.0  L -60.0 590.0  L -60.0 580  L -40 600.0  L -60.0 620  L -60.0 610.0  L -80 610.0  Z" fill="rgb(255, 255, 255)" stroke="rgb(0, 0, 0)" stroke-width="2" /></g><g id="P2"><text fill="rgb(0, 0, 0)" font-family="Arial" font-size="12" text-anchor="middle" x="-60.0" y="640">P2</text></g><g id="DS10-PA11T" transform="translate(720.0,0) scale(-1,1) translate(-720.0,0)"><circle cx="720.0" cy="600.0" fill="rgb(255, 255, 255)" r="20.0" stroke="rgb(0, 0, 0)" stroke-width="2" /><line stroke="rgb(0, 0, 0)" stroke-width="2" x1="720.0" x2="740" y1="580" y2="600.0" /><line stroke="rgb(0, 0, 0)" stroke-width="2" x1="720.0" x2="740" y1="620" y2="600.0" /></g><g id="DS10-PA11"><text fill="rgb(0, 0, 0)" font-family="Arial" font-size="12" text-anchor="middle" x="720.0" y="640">DS10-PA11</text></g></svg>