<?xml version="1.0" encoding="utf-8" ?>
<svg baseProfile="full" height="360px" style="background-color:rgb(255, 255, 255)" version="1.1" viewBox="-40,-40,440.0,360" width="440.0px" xmlns="http://www.w3.org/2000/svg" xmlns:ev="http://www.w3.org/2001/xml-events" xmlns:xlink="http://www.w3.org/1999/xlink"><defs><marker id="id4" markerHeight="4" markerWidth="4" orient="auto" refX="2" refY="2"><path d="M0,0 V4 L2,2 Z" stroke-width="1" /></marker></defs><g id="S1"><path d="M 40 20.0  L 40 20  L 90 20  L 90 110  L 100 110  L 102.41229516856366 106.31919426697326 " fill="none" marker-end="url(#id4)" stroke="rgb(0, 0, 255)" stroke-width="2" /><text fill="rgb(0, 0, 0)" font-family="Arial" font-size="10" text-anchor="middle" x="50" y="30">S1</text></g><g id="S2"><path d="M 177.58770483143633 133.68080573302674  L 180 130  L 350 130  L 350 220  L 340 220 " fill="none" marker-end="url(#id4)" stroke="rgb(0, 0, 0)" stroke-dasharray="4 1" stroke-width="2" /><text fill="rgb(0, 0, 0)" font-family="Arial" font-size="10" text-anchor="middle" x="190" y="150">S2</text></g><g id="U1T"><path d="M 0 10.0  L 20.0 10.0  L 20.0 0  L 40 20.0  L 20.0 40  L 20.0 30.0  L 0 30.0  Z" fill="rgb(255, 255, 255)" stroke="rgb(0, 0, 0)" stroke-width="2" /></g><g id="U1"><text fill="rgb(0, 0, 0)" font-family="Arial" font-size="12" text-anchor="middle" x="20.0" y="60">U1</text></g><g id="U2T" transform="rotate(20,140.0,120.0 ) "><path d="M 120.0 120.0  L 120.0 140.0  A 20.0 20.0 0 1,1 120.0 100.0 Z" fill="rgb(150, 150, 150)" stroke="rgb(100, 100, 100)" stroke-width="2" /><rect fill="rgb(150, 150, 150)" height="40" stroke="rgb(100, 100, 100)" stroke-width="2" width="40.0" x="120.0" y="100" /><path d="M 160.0 120.0  L 160.0 100.0  A 20.0 20.0 0 1,1 160.0 140.0 Z" fill="rgb(150, 150, 150)" stroke="rgb(100, 100, 100)" stroke-width="2" /><line stroke="rgb(100, 100, 100)" stroke-width="2" x1="120.0" x2="160.0" y1="108.0" y2="108.0" /><line stroke="rgb(100, 100, 100)" stroke-width="2" x1="120.0" x2="160.0" y1="116.0" y2="116.0" /><line stroke="rgb(100, 100, 100)" stroke-width="2" x1="120.0" x2="160.0" y1="124.0" y2="124.0" /><line stroke="rgb(100, 100, 100)" stroke-width="2" x1="120.0" x2="160.0" y1="132.0" y2="132.0" /></g><g id="U2"><text fill="rgb(255, 0, 0)" font-family="Times New Roman" font-size="12" text-anchor="middle" x="140.0" y="90">U2</text></g><g id="U3T" transform="translate(320.0,0) scale(-1,1) translate(-320.0,0)"><path d="M 300 210.0  L 320.0 210.0  L 320.0 200  L 340 220.0  L 320.0 240  L 320.0 230.0  L 300 230.0  Z" fill="rgb(255, 255, 255)" stroke="rgb(0, 0, 0)" stroke-width="2" /></g><g id="U3"><text fill="rgb(0, 0, 0)" font-family="Arial" font-size="12" text-anchor="middle" x="320.0" y="260">U3</text></g></svg>