<?xml version="1.0" encoding="utf-8" ?>
<svg baseProfile="full" height="360px" style="background-color:rgb(0, 128, 128)" version="1.1" viewBox="-40,60,540.0,360" width="540.0px" xmlns="http://www.w3.org/2000/svg" xmlns:ev="http://www.w3.org/2001/xml-events" xmlns:xlink="http://www.w3.org/1999/xlink"><defs><marker id="id3" markerHeight="4" markerWidth="4" orient="auto" refX="2" refY="2"><path d="M0,0 V4 L2,2 Z" stroke-width="1" /></marker></defs><g id="S01"><path d="M 40 220.0  L 40 220  L 100 220  L 104.0 220.0 " fill="none" marker-end="url(#id3)" stroke="rgb(0, 0, 255)" stroke-width="2" /><text fill="rgb(165, 165, 165)" font-family="Arial" font-size="10" text-anchor="middle" x="50" y="230">S01</text></g><g id="S02"><path d="M 40 120.0  L 40 120  L 110 120  L 110 210  L 110.0 214.0 " fill="none" marker-end="url(#id3)" stroke="rgb(0, 0, 255)" stroke-width="2" /><text fill="rgb(165, 165, 165)" font-family="Arial" font-size="10" text-anchor="middle" x="50" y="130">S02</text></g><g id="S03"><path d="M 116.0 220.0  L 120 220  L 180 220 " fill="none" marker-end="url(#id3)" stroke="rgb(0, 0, 255)" stroke-width="2" /><text fill="rgb(165, 165, 165)" font-family="Arial" font-size="10" text-anchor="middle" x="130" y="230">S03</text></g><g id="S04"><path d="M 260 220.0  L 260 220  L 300 220  L 304.0 220.0 " fill="none" marker-end="url(#id3)" stroke="rgb(0, 0, 255)" stroke-width="2" /><text fill="rgb(165, 165, 165)" font-family="Arial" font-size="10" text-anchor="middle" x="270" y="230">S04</text></g><g id="S05"><path d="M 316.0 220.0  L 320 220  L 400 220 " fill="none" marker-end="url(#id3)" stroke="rgb(0, 0, 255)" stroke-width="2" /><text fill="rgb(165, 165, 165)" font-family="Arial" font-size="10" text-anchor="middle" x="340" y="230">S05</text></g><g id="S06"><path d="M 310.0 214.0  L 310 210  L 310 120  L 400 120 " fill="none" marker-end="url(#id3)" stroke="rgb(0, 0, 255)" stroke-width="2" /><text fill="rgb(165, 165, 165)" font-family="Arial" font-size="10" text-anchor="middle" x="310" y="200">S06</text></g><g id="S07"><path d="M 310.0 226.0  L 310 230  L 310 280  L 390 280  L 390 320  L 400 320 " fill="none" marker-end="url(#id3)" stroke="rgb(0, 0, 255)" stroke-width="2" /><text fill="rgb(165, 165, 165)" font-family="Arial" font-size="10" text-anchor="middle" x="310" y="260">S07</text></g><g id="F100T"><path d="M 0 210.0  L 20.0 210.0  L 20.0 200  L 40 220.0  L 20.0 240  L 20.0 230.0  L 0 230.0  Z" fill="rgb(165, 165, 165)" stroke="rgb(0, 0, 0)" stroke-width="2" /></g><g id="F100"><text fill="rgb(255, 255, 255)" font-family="Arial" font-size="12" text-anchor="middle" x="20.0" y="260">F100</text></g><g id="F200T"><path d="M 0 110.0  L 20.0 110.0  L 20.0 100  L 40 120.0  L 20.0 140  L 20.0 130.0  L 0 130.0  Z" fill="rgb(165, 165, 165)" stroke="rgb(0, 0, 0)" stroke-width="2" /></g><g id="F200"><text fill="rgb(255, 255, 255)" font-family="Arial" font-size="12" text-anchor="middle" x="20.0" y="160">F200</text></g><g id="MX10T"><rect fill="rgb(165, 165, 165)" height="10" stroke="rgb(0, 0, 0)" stroke-width="2" width="10" x="105" y="215" /></g><g id="MX10"><text fill="rgb(255, 255, 255)" font-family="Arial" font-size="12" text-anchor="middle" x="110.0" y="240">MX10</text></g><g id="DS10-WA10T"><path d="M 200.0 220.0  L 200.0 240.0  A 20.0 20.0 0 1,1 200.0 200.0 Z" fill="rgb(165, 165, 165)" stroke="rgb(0, 0, 0)" stroke-width="2" /><rect fill="rgb(165, 165, 165)" height="40" stroke="rgb(0, 0, 0)" stroke-width="2" width="40.0" x="200.0" y="200" /><path d="M 240.0 220.0  L 240.0 200.0  A 20.0 20.0 0 1,1 240.0 240.0 Z" fill="rgb(165, 165, 165)" stroke="rgb(0, 0, 0)" stroke-width="2" /><line stroke="rgb(0, 0, 0)" stroke-width="2" x1="200.0" x2="240.0" y1="208.0" y2="208.0" /><line stroke="rgb(0, 0, 0)" stroke-width="2" x1="200.0" x2="240.0" y1="216.0" y2="216.0" /><line stroke="rgb(0, 0, 0)" stroke-width="2" x1="200.0" x2="240.0" y1="224.0" y2="224.0" /><line stroke="rgb(0, 0, 0)" stroke-width="2" x1="200.0" x2="240.0" y1="232.0" y2="232.0" /></g><g id="DS10-WA10"><text fill="rgb(255, 255, 255)" font-family="Arial" font-size="12" text-anchor="middle" x="220.0" y="260">DS10-WA10</text></g><g id="SP10T"><rect fill="rgb(165, 165, 165)" height="10" stroke="rgb(0, 0, 0)" stroke-width="2" width="10" x="305" y="215" /></g><g id="SP10"><text fill="rgb(255, 255, 255)" font-family="Arial" font-size="12" text-anchor="middle" x="310.0" y="240">SP10</text></g><g id="P2T"><path d="M 400 210.0  L 420.0 210.0  L 420.0 200  L 440 220.0  L 420.0 240  L 420.0 230.0  L 400 230.0  Z" fill="rgb(165, 165, 165)" stroke="rgb(0, 0, 0)" stroke-width="2" /></g><g id="P2"><text fill="rgb(255, 255, 255)" font-family="Arial" font-size="12" text-anchor="middle" x="420.0" y="260">P2</text></g><g id="P1T"><path d="M 400 110.0  L 420.0 110.0  L 420.0 100  L 440 120.0  L 420.0 140  L 420.0 130.0  L 400 130.0  Z" fill="rgb(165, 165, 165)" stroke="rgb(0, 0, 0)" stroke-width="2" /></g><g id="P1"><text fill="rgb(255, 255, 255)" font-family="Arial" font-size="12" text-anchor="middle" x="420.0" y="160">P1</text></g><g id="P3T"><path d="M 400 310.0  L 420.0 310.0  L 420.0 300  L 440 320.0  L 420.0 340  L 420.0 330.0  L 400 330.0  Z" fill="rgb(165, 165, 165)" stroke="rgb(0, 0, 0)" stroke-width="2" /></g><g id="P3"><text fill="rgb(255, 255, 255)" font-family="Arial" font-size="12" text-anchor="middle" x="420.0" y="360">P3</text></g></svg>