<?xml version="1.0" encoding="utf-8" ?>
<svg baseProfile="full" height="1040px" style="background-color:rgb(255, 255, 255)" version="1.1" viewBox="-40,60,590.0,1040" width="590.0px" xmlns="http://www.w3.org/2000/svg" xmlns:ev="http://www.w3.org/2001/xml-events" xmlns:xlink="http://www.w3.org/1999/xlink"><defs><marker id="id31" markerHeight="4" markerWidth="4" orient="auto" refX="2" refY="2"><path d="M0,0 V4 L2,2 Z" stroke-width="1" /></marker></defs><g id="U1T"><circle cx="20.0" cy="120.0" fill="rgb(255, 255, 255)" r="20.0" stroke="rgb(0, 0, 0)" stroke-width="2" /><line stroke="rgb(0, 0, 0)" stroke-width="2" x1="20.0" x2="40" y1="100" y2="120.0" /><line stroke="rgb(0, 0, 0)" stroke-width="2" x1="20.0" x2="40" y1="140" y2="120.0" /></g><g id="U1"><text fill="rgb(0, 0, 0)" font-family="Arial" font-size="12" text-anchor="middle" x="20.0" y="160">U1</text></g><g id="U2T"><path d="M 100 110  L 140 130  L 140 110  L 100 130  Z" fill="rgb(255, 255, 255)" stroke="rgb(0, 0, 0)" stroke-width="2" /></g><g id="U2"><text fill="rgb(0, 0, 0)" font-family="Arial" font-size="12" text-anchor="middle" x="120.0" y="150">U2</text></g><g id="U3T"><rect fill="rgb(255, 255, 255)" height="40" stroke="rgb(0, 0, 0)" stroke-width="2" width="40" x="200" y="100" /></g><g id="U3"><text fill="rgb(0, 0, 0)" font-family="Arial" font-size="12" text-anchor="middle" x="220.0" y="160">U3</text></g><g id="U4T"><circle cx="320.0" cy="120.0" fill="rgb(255, 255, 255)" r="20.0" stroke="rgb(0, 0, 0)" stroke-width="2" /><path d="M 300 120.0  L 306.6666666666667 120.0  L 313.3333333333333 110.0  L 326.6666666666667 130.0  L 333.3333333333333 120.0  L 340 120.0 " fill="none" stroke="rgb(0, 0, 0)" stroke-width="2" /></g><g id="U4"><text fill="rgb(0, 0, 0)" font-family="Arial" font-size="12" text-anchor="middle" x="320.0" y="160">U4</text></g><g id="U5T"><rect fill="rgb(0, 0, 0)" height="10" stroke="rgb(0, 0, 0)" stroke-width="2" width="10" x="5" y="215" /></g><g id="U5"><text fill="rgb(0, 0, 0)" font-family="Arial" font-size="12" text-anchor="middle" x="10.0" y="240">U5</text></g><g id="U6T"><rect fill="rgb(0, 0, 0)" height="10" stroke="rgb(0, 0, 0)" stroke-width="2" width="10" x="105" y="215" /></g><g id="U6"><text fill="rgb(0, 0, 0)" font-family="Arial" font-size="12" text-anchor="middle" x="110.0" y="240">U6</text></g><g id="U7T"><path d="M 200 210.0  L 220.0 210.0  L 220.0 200  L 240 220.0  L 220.0 240  L 220.0 230.0  L 200 230.0  Z" fill="rgb(255, 255, 255)" stroke="rgb(0, 0, 0)" stroke-width="2" /></g><g id="U7"><text fill="rgb(0, 0, 0)" font-family="Arial" font-size="12" text-anchor="middle" x="220.0" y="260">U7</text></g><g id="U8T"><path d="M 20.0 320.0  L 20.0 340.0  A 20.0 20.0 0 1,1 20.0 300.0 Z" fill="rgb(255, 255, 255)" stroke="rgb(0, 0, 0)" stroke-width="2" /><rect fill="rgb(255, 255, 255)" height="40" stroke="rgb(0, 0, 0)" stroke-width="2" width="40.0" x="20.0" y="300" /><path d="M 60.0 320.0  L 60.0 300.0  A 20.0 20.0 0 1,1 60.0 340.0 Z" fill="rgb(255, 255, 255)" stroke="rgb(0, 0, 0)" stroke-width="2" /></g><g id="U8"><text fill="rgb(0, 0, 0)" font-family="Arial" font-size="12" text-anchor="middle" x="40.0" y="360">U8</text></g><g id="U9T"><path d="M 120.0 320.0  L 120.0 340.0  A 20.0 20.0 0 1,1 120.0 300.0 Z" fill="rgb(255, 255, 255)" stroke="rgb(0, 0, 0)" stroke-width="2" /><rect fill="rgb(255, 255, 255)" height="40" stroke="rgb(0, 0, 0)" stroke-width="2" width="40.0" x="120.0" y="300" /><path d="M 160.0 320.0  L 160.0 300.0  A 20.0 20.0 0 1,1 160.0 340.0 Z" fill="rgb(255, 255, 255)" stroke="rgb(0, 0, 0)" stroke-width="2" /><line stroke="rgb(0, 0, 0)" stroke-width="2" x1="120.0" x2="160.0" y1="300" y2="340" /><line stroke="rgb(0, 0, 0)" stroke-width="2" x1="120.0" x2="160.0" y1="340" y2="300" /></g><g id="U9"><text fill="rgb(0, 0, 0)" font-family="Arial" font-size="12" text-anchor="middle" x="140.0" y="360">U9</text></g><g id="U10T"><path d="M 220.0 320.0  L 220.0 340.0  A 20.0 20.0 0 1,1 220.0 300.0 Z" fill="rgb(255, 255, 255)" stroke="rgb(0, 0, 0)" stroke-width="2" /><rect fill="rgb(255, 255, 255)" height="40" stroke="rgb(0, 0, 0)" stroke-width="2" width="40.0" x="220.0" y="300" /><path d="M 260.0 320.0  L 260.0 300.0  A 20.0 20.0 0 1,1 260.0 340.0 Z" fill="rgb(255, 255, 255)" stroke="rgb(0, 0, 0)" stroke-width="2" /><line stroke="rgb(0, 0, 0)" stroke-width="2" x1="220.0" x2="260.0" y1="308.0" y2="308.0" /><line stroke="rgb(0, 0, 0)" stroke-width="2" x1="220.0" x2="260.0" y1="316.0" y2="316.0" /><line stroke="rgb(0, 0, 0)" stroke-width="2" x1="220.0" x2="260.0" y1="324.0" y2="324.0" /><line stroke="rgb(0, 0, 0)" stroke-width="2" x1="220.0" x2="260.0" y1="332.0" y2="332.0" /></g><g id="U10"><text fill="rgb(0, 0, 0)" font-family="Arial" font-size="12" text-anchor="middle" x="240.0" y="360">U10</text></g><g id="U11T"><path d="M 20.0 420.0  L 0.0 420.0  A 20.0 20.0 0 1,1 40.0 420.0 Z" fill="rgb(255, 255, 255)" stroke="rgb(0, 0, 0)" stroke-width="2" /><rect fill="rgb(255, 255, 255)" height="40.0" stroke="rgb(0, 0, 0)" stroke-width="2" width="40" x="0" y="420.0" /><path d="M 20.0 460.0  L 40.0 460.0  A 20.0 20.0 0 1,1 0.0 460.0 Z" fill="rgb(255, 255, 255)" stroke="rgb(0, 0, 0)" stroke-width="2" /></g><g id="U11"><text fill="rgb(0, 0, 0)" font-family="Arial" font-size="12" text-anchor="middle" x="20.0" y="500">U11</text></g><g id="U12T"><path d="M 120.0 420.0  L 100.0 420.0  A 20.0 20.0 0 1,1 140.0 420.0 Z" fill="rgb(255, 255, 255)" stroke="rgb(0, 0, 0)" stroke-width="2" /><rect fill="rgb(255, 255, 255)" height="40.0" stroke="rgb(0, 0, 0)" stroke-width="2" width="40" x="100" y="420.0" /><path d="M 120.0 460.0  L 140.0 460.0  A 20.0 20.0 0 1,1 100.0 460.0 Z" fill="rgb(255, 255, 255)" stroke="rgb(0, 0, 0)" stroke-width="2" /><line stroke="rgb(0, 0, 0)" stroke-width="2" x1="100" x2="140" y1="420.0" y2="460.0" /><line stroke="rgb(0, 0, 0)" stroke-width="2" x1="140" x2="100" y1="420.0" y2="460.0" /></g><g id="U12"><text fill="rgb(0, 0, 0)" font-family="Arial" font-size="12" text-anchor="middle" x="120.0" y="500">U12</text></g><g id="U13T"><path d="M 220.0 420.0  L 200.0 420.0  A 20.0 20.0 0 1,1 240.0 420.0 Z" fill="rgb(255, 255, 255)" stroke="rgb(0, 0, 0)" stroke-width="2" /><rect fill="rgb(255, 255, 255)" height="40.0" stroke="rgb(0, 0, 0)" stroke-width="2" width="40" x="200" y="420.0" /><path d="M 220.0 460.0  L 240.0 460.0  A 20.0 20.0 0 1,1 200.0 460.0 Z" fill="rgb(255, 255, 255)" stroke="rgb(0, 0, 0)" stroke-width="2" /><line stroke="rgb(0, 0, 0)" stroke-width="2" x1="208.0" x2="208.0" y1="420.0" y2="460.0" /><line stroke="rgb(0, 0, 0)" stroke-width="2" x1="216.0" x2="216.0" y1="420.0" y2="460.0" /><line stroke="rgb(0, 0, 0)" stroke-width="2" x1="224.0" x2="224.0" y1="420.0" y2="460.0" /><line stroke="rgb(0, 0, 0)" stroke-width="2" x1="232.0" x2="232.0" y1="420.0" y2="460.0" /></g><g id="U13"><text fill="rgb(0, 0, 0)" font-family="Arial" font-size="12" text-anchor="middle" x="220.0" y="500">U13</text></g><g id="U14T"><rect fill-opacity="0" height="40.0" stroke="rgb(0, 0, 0)" stroke-width="2" width="40.0" x="20.0" y="580.0" /><circle cx="60.0" cy="580.0" fill="rgb(255, 255, 255)" r="20.0" stroke="rgb(0, 0, 0)" stroke-width="2" /><line stroke="rgb(0, 0, 0)" stroke-width="2" x1="60.0" x2="80" y1="620.0" y2="620.0" /><rect fill-opacity="0" height="40.0" stroke="rgb(0, 0, 0)" stroke-width="2" width="40.0" x="20.0" y="720.0" /><circle cx="60.0" cy="760.0" fill="rgb(255, 255, 255)" r="20.0" stroke="rgb(0, 0, 0)" stroke-width="2" /><path d="M 20.0 620.0  L 0.0 620.0  A 20.0 20.0 0 1,1 40.0 620.0 Z" fill="rgb(255, 255, 255)" stroke="rgb(0, 0, 0)" stroke-width="2" /><rect fill="rgb(255, 255, 255)" height="100.0" stroke="rgb(0, 0, 0)" stroke-width="2" width="40" x="0" y="620.0" /><path d="M 20.0 720.0  L 40.0 720.0  A 20.0 20.0 0 1,1 0.0 720.0 Z" fill="rgb(255, 255, 255)" stroke="rgb(0, 0, 0)" stroke-width="2" /></g><g id="U14"><text fill="rgb(0, 0, 0)" font-family="Arial" font-size="12" text-anchor="middle" x="20.0" y="780">U14</text></g><g id="U15T"><rect fill-opacity="0" height="40.0" stroke="rgb(0, 0, 0)" stroke-width="2" width="40.0" x="170.0" y="720.0" /><circle cx="210.0" cy="760.0" fill="rgb(255, 255, 255)" r="20.0" stroke="rgb(0, 0, 0)" stroke-width="2" /><path d="M 170.0 620.0  L 150.0 620.0  A 20.0 20.0 0 1,1 190.0 620.0 Z" fill="rgb(255, 255, 255)" stroke="rgb(0, 0, 0)" stroke-width="2" /><rect fill="rgb(255, 255, 255)" height="100.0" stroke="rgb(0, 0, 0)" stroke-width="2" width="40" x="150" y="620.0" /><path d="M 170.0 720.0  L 190.0 720.0  A 20.0 20.0 0 1,1 150.0 720.0 Z" fill="rgb(255, 255, 255)" stroke="rgb(0, 0, 0)" stroke-width="2" /></g><g id="U15"><text fill="rgb(0, 0, 0)" font-family="Arial" font-size="12" text-anchor="middle" x="170.0" y="780">U15</text></g><g id="U16T"><rect fill-opacity="0" height="40.0" stroke="rgb(0, 0, 0)" stroke-width="2" width="40.0" x="320.0" y="580.0" /><circle cx="360.0" cy="580.0" fill="rgb(255, 255, 255)" r="20.0" stroke="rgb(0, 0, 0)" stroke-width="2" /><line stroke="rgb(0, 0, 0)" stroke-width="2" x1="360.0" x2="380" y1="620.0" y2="620.0" /><path d="M 320.0 620.0  L 300.0 620.0  A 20.0 20.0 0 1,1 340.0 620.0 Z" fill="rgb(255, 255, 255)" stroke="rgb(0, 0, 0)" stroke-width="2" /><rect fill="rgb(255, 255, 255)" height="100.0" stroke="rgb(0, 0, 0)" stroke-width="2" width="40" x="300" y="620.0" /><path d="M 320.0 720.0  L 340.0 720.0  A 20.0 20.0 0 1,1 300.0 720.0 Z" fill="rgb(255, 255, 255)" stroke="rgb(0, 0, 0)" stroke-width="2" /></g><g id="U16"><text fill="rgb(0, 0, 0)" font-family="Arial" font-size="12" text-anchor="middle" x="320.0" y="760">U16</text></g><g id="U17T"><path d="M 470.0 620.0  L 450.0 620.0  A 20.0 20.0 0 1,1 490.0 620.0 Z" fill="rgb(255, 255, 255)" stroke="rgb(0, 0, 0)" stroke-width="2" /><rect fill="rgb(255, 255, 255)" height="100.0" stroke="rgb(0, 0, 0)" stroke-width="2" width="40" x="450" y="620.0" /><path d="M 470.0 720.0  L 490.0 720.0  A 20.0 20.0 0 1,1 450.0 720.0 Z" fill="rgb(255, 255, 255)" stroke="rgb(0, 0, 0)" stroke-width="2" /></g><g id="U17"><text fill="rgb(0, 0, 0)" font-family="Arial" font-size="12" text-anchor="middle" x="470.0" y="760">U17</text></g><g id="U18T"><rect fill-opacity="0" height="40.0" stroke="rgb(0, 0, 0)" stroke-width="2" width="40.0" x="20.0" y="840.0" /><circle cx="60.0" cy="840.0" fill="rgb(255, 255, 255)" r="20.0" stroke="rgb(0, 0, 0)" stroke-width="2" /><line stroke="rgb(0, 0, 0)" stroke-width="2" x1="60.0" x2="80" y1="880.0" y2="880.0" /><rect fill-opacity="0" height="40.0" stroke="rgb(0, 0, 0)" stroke-width="2" width="40.0" x="20.0" y="980.0" /><circle cx="60.0" cy="1020.0" fill="rgb(255, 255, 255)" r="20.0" stroke="rgb(0, 0, 0)" stroke-width="2" /><path d="M 20.0 880.0  L 0.0 880.0  A 20.0 20.0 0 1,1 40.0 880.0 Z" fill="rgb(255, 255, 255)" stroke="rgb(0, 0, 0)" stroke-width="2" /><rect fill="rgb(255, 255, 255)" height="100.0" stroke="rgb(0, 0, 0)" stroke-width="2" width="40" x="0" y="880.0" /><path d="M 20.0 980.0  L 40.0 980.0  A 20.0 20.0 0 1,1 0.0 980.0 Z" fill="rgb(255, 255, 255)" stroke="rgb(0, 0, 0)" stroke-width="2" /><line stroke="rgb(0, 0, 0)" stroke-width="2" x1="0" x2="32.0" y1="880.0" y2="880.0" /><line stroke="rgb(0, 0, 0)" stroke-width="2" x1="8.0" x2="40" y1="889.0909090909091" y2="889.0909090909091" /><line stroke="rgb(0, 0, 0)" stroke-width="2" x1="0" x2="32.0" y1="898.1818181818181" y2="898.1818181818181" /><line stroke="rgb(0, 0, 0)" stroke-width="2" x1="8.0" x2="40" y1="907.2727272727273" y2="907.2727272727273" /><line stroke="rgb(0, 0, 0)" stroke-width="2" x1="0" x2="32.0" y1="916.3636363636364" y2="916.3636363636364" /><line stroke="rgb(0, 0, 0)" stroke-width="2" x1="8.0" x2="40" y1="925.4545454545455" y2="925.4545454545455" /><line stroke="rgb(0, 0, 0)" stroke-width="2" x1="0" x2="32.0" y1="934.5454545454545" y2="934.5454545454545" /><line stroke="rgb(0, 0, 0)" stroke-width="2" x1="8.0" x2="40" y1="943.6363636363636" y2="943.6363636363636" /><line stroke="rgb(0, 0, 0)" stroke-width="2" x1="0" x2="32.0" y1="952.7272727272727" y2="952.7272727272727" /><line stroke="rgb(0, 0, 0)" stroke-width="2" x1="8.0" x2="40" y1="961.8181818181819" y2="961.8181818181819" /><line stroke="rgb(0, 0, 0)" stroke-width="2" x1="0" x2="32.0" y1="970.9090909090909" y2="970.9090909090909" /></g><g id="U18"><text fill="rgb(0, 0, 0)" font-family="Arial" font-size="12" text-anchor="middle" x="20.0" y="1040">U18</text></g><g id="U19T"><rect fill-opacity="0" height="40.0" stroke="rgb(0, 0, 0)" stroke-width="2" width="40.0" x="170.0" y="840.0" /><circle cx="210.0" cy="840.0" fill="rgb(255, 255, 255)" r="20.0" stroke="rgb(0, 0, 0)" stroke-width="2" /><line stroke="rgb(0, 0, 0)" stroke-width="2" x1="210.0" x2="230" y1="880.0" y2="880.0" /><rect fill-opacity="0" height="40.0" stroke="rgb(0, 0, 0)" stroke-width="2" width="40.0" x="170.0" y="980.0" /><circle cx="210.0" cy="1020.0" fill="rgb(255, 255, 255)" r="20.0" stroke="rgb(0, 0, 0)" stroke-width="2" /><path d="M 170.0 880.0  L 150.0 880.0  A 20.0 20.0 0 1,1 190.0 880.0 Z" fill="rgb(255, 255, 255)" stroke="rgb(0, 0, 0)" stroke-width="2" /><rect fill="rgb(255, 255, 255)" height="100.0" stroke="rgb(0, 0, 0)" stroke-width="2" width="40" x="150" y="880.0" /><path d="M 170.0 980.0  L 190.0 980.0  A 20.0 20.0 0 1,1 150.0 980.0 Z" fill="rgb(255, 255, 255)" stroke="rgb(0, 0, 0)" stroke-width="2" /><line stroke="rgb(0, 0, 0)" stroke-width="2" x1="150" x2="190" y1="880.0" y2="910.0" /><line stroke="rgb(0, 0, 0)" stroke-width="2" x1="190" x2="150" y1="880.0" y2="910.0" /><line stroke="rgb(0, 0, 0)" stroke-width="2" x1="150" x2="190" y1="910.0" y2="910.0" /><line stroke="rgb(0, 0, 0)" stroke-width="2" x1="150" x2="190" y1="950.0" y2="980.0" /><line stroke="rgb(0, 0, 0)" stroke-width="2" x1="190" x2="150" y1="950.0" y2="980.0" /><line stroke="rgb(0, 0, 0)" stroke-width="2" x1="150" x2="190" y1="950.0" y2="950.0" /></g><g id="U19"><text fill="rgb(0, 0, 0)" font-family="Arial" font-size="12" text-anchor="middle" x="170.0" y="1040">U19</text></g><g id="U20T"><rect fill-opacity="0" height="40.0" stroke="rgb(0, 0, 0)" stroke-width="2" width="40.0" x="320.0" y="840.0" /><circle cx="360.0" cy="840.0" fill="rgb(255, 255, 255)" r="20.0" stroke="rgb(0, 0, 0)" stroke-width="2" /><line stroke="rgb(0, 0, 0)" stroke-width="2" x1="360.0" x2="380" y1="880.0" y2="880.0" /><rect fill-opacity="0" height="40.0" stroke="rgb(0, 0, 0)" stroke-width="2" width="40.0" x="320.0" y="980.0" /><circle cx="360.0" cy="1020.0" fill="rgb(255, 255, 255)" r="20.0" stroke="rgb(0, 0, 0)" stroke-width="2" /><path d="M 320.0 880.0  L 300.0 880.0  A 20.0 20.0 0 1,1 340.0 880.0 Z" fill="rgb(255, 255, 255)" stroke="rgb(0, 0, 0)" stroke-width="2" /><rect fill="rgb(255, 255, 255)" height="100.0" stroke="rgb(0, 0, 0)" stroke-width="2" width="40" x="300" y="880.0" /><path d="M 320.0 980.0  L 340.0 980.0  A 20.0 20.0 0 1,1 300.0 980.0 Z" fill="rgb(255, 255, 255)" stroke="rgb(0, 0, 0)" stroke-width="2" /><line stroke="rgb(0, 0, 0)" stroke-width="2" x1="320.0" x2="320.0" y1="900" y2="960" /></g><g id="U20"><text fill="rgb(0, 0, 0)" font-family="Arial" font-size="12" text-anchor="middle" x="320.0" y="1040">U20</text></g></svg>