<?xml version="1.0" encoding="utf-8" ?>
<svg baseProfile="full" height="1043.0px" style="background-color:rgb(255, 255, 255)" version="1.1" viewBox="-63.0,57.0,763.0,1043.0" width="763.0px" xmlns="http://www.w3.org/2000/svg" xmlns:ev="http://www.w3.org/2001/xml-events" xmlns:xlink="http://www.w3.org/1999/xlink"><defs><marker id="id1" markerHeight="4" markerWidth="4" orient="auto" refX="2" refY="2"><path d="M0,0 V4 L2,2 Z" stroke-width="1" /></marker></defs><g id="U1T"><circle cx="20.0" cy="120.0" fill="rgb(255, 255, 255)" r="20.0" stroke="rgb(0, 0, 0)" stroke-width="2" /><line stroke="rgb(0, 0, 0)" stroke-width="2" x1="20.0" x2="40" y1="100" y2="120.0" /><line stroke="rgb(0, 0, 0)" stroke-width="2" x1="20.0" x2="40" y1="140" y2="120.0" /></g><g id="U1"><circle cx="0.0" cy="120.0" fill-opacity="0" r="3.0" stroke="rgb(0, 0, 255)" stroke-width="1" /><circle cx="40.0" cy="120.0" fill-opacity="0" r="3.0" stroke="rgb(255, 0, 0)" stroke-width="1" /><text fill="rgb(0, 0, 0)" font-family="Arial" font-size="12" text-anchor="middle" x="20.0" y="160">U1</text></g><g id="U2T"><path d="M 100 110  L 140 130  L 140 110  L 100 130  Z" fill="rgb(255, 255, 255)" stroke="rgb(0, 0, 0)" stroke-width="2" /></g><g id="U2"><circle cx="100.0" cy="120.0" fill-opacity="0" r="3.0" stroke="rgb(0, 0, 255)" stroke-width="1" /><circle cx="140.0" cy="120.0" fill-opacity="0" r="3.0" stroke="rgb(255, 0, 0)" stroke-width="1" /><text fill="rgb(0, 0, 0)" font-family="Arial" font-size="12" text-anchor="middle" x="120.0" y="150">U2</text></g><g id="U3T"><rect fill="rgb(255, 255, 255)" height="40" stroke="rgb(0, 0, 0)" stroke-width="2" width="40" x="200" y="100" /></g><g id="U3"><circle cx="200.0" cy="120.0" fill-opacity="0" r="3.0" stroke="rgb(0, 0, 255)" stroke-width="1" /><circle cx="240.0" cy="120.0" fill-opacity="0" r="3.0" stroke="rgb(255, 0, 0)" stroke-width="1" /><text fill="rgb(0, 0, 0)" font-family="Arial" font-size="12" text-anchor="middle" x="220.0" y="160">U3</text></g><g id="U4T"><circle cx="320.0" cy="120.0" fill="rgb(255, 255, 255)" r="20.0" stroke="rgb(0, 0, 0)" stroke-width="2" /><path d="M 300 120.0  L 306.6666666666667 120.0  L 313.3333333333333 110.0  L 326.6666666666667 130.0  L 333.3333333333333 120.0  L 340 120.0 " fill="none" stroke="rgb(0, 0, 0)" stroke-width="2" /></g><g id="U4"><circle cx="300.0" cy="120.0" fill-opacity="0" r="3.0" stroke="rgb(0, 0, 255)" stroke-width="1" /><circle cx="340.0" cy="120.0" fill-opacity="0" r="3.0" stroke="rgb(255, 0, 0)" stroke-width="1" /><circle cx="320.0" cy="100.0" fill-opacity="0" r="3.0" stroke="rgb(0, 0, 255)" stroke-width="1" /><circle cx="320.0" cy="140.0" fill-opacity="0" r="3.0" stroke="rgb(255, 0, 0)" stroke-width="1" /><text fill="rgb(0, 0, 0)" font-family="Arial" font-size="12" text-anchor="middle" x="320.0" y="160">U4</text></g><g id="U22T"><circle cx="420.0" cy="120.0" fill="rgb(255, 255, 255)" r="20.0" stroke="rgb(0, 0, 0)" stroke-width="2" /><line stroke="rgb(0, 0, 0)" stroke-width="2" x1="410.0" x2="439.69615506024417" y1="102.67949192431122" y2="116.5270364466614" /><line stroke="rgb(0, 0, 0)" stroke-width="2" x1="410.0" x2="439.69615506024417" y1="137.32050807568876" y2="123.4729635533386" /></g><g id="U22"><circle cx="400.0" cy="120.0" fill-opacity="0" r="3.0" stroke="rgb(0, 0, 255)" stroke-width="1" /><circle cx="440.0" cy="120.0" fill-opacity="0" r="3.0" stroke="rgb(255, 0, 0)" stroke-width="1" /><text fill="rgb(0, 0, 0)" font-family="Arial" font-size="12" text-anchor="middle" x="420.0" y="160">U22</text></g><g id="U25T"><circle cx="520.0" cy="120.0" fill="rgb(255, 255, 255)" r="20.0" stroke="rgb(0, 0, 0)" stroke-width="2" /><line stroke="rgb(0, 0, 0)" stroke-width="2" x1="510.0" x2="539.6961550602441" y1="102.67949192431122" y2="116.5270364466614" /><line stroke="rgb(0, 0, 0)" stroke-width="2" x1="510.0" x2="539.6961550602441" y1="137.32050807568876" y2="123.4729635533386" /><line stroke="rgb(0, 0, 0)" stroke-width="2" x1="516.0" x2="532.0" y1="120.0" y2="120.0" /><line stroke="rgb(0, 0, 0)" stroke-width="2" x1="516.0" x2="516.0" y1="112.0" y2="128.0" /></g><g id="U25"><circle cx="500.0" cy="120.0" fill-opacity="0" r="3.0" stroke="rgb(0, 0, 255)" stroke-width="1" /><circle cx="540.0" cy="120.0" fill-opacity="0" r="3.0" stroke="rgb(255, 0, 0)" stroke-width="1" /><text fill="rgb(0, 0, 0)" font-family="Arial" font-size="12" text-anchor="middle" x="520.0" y="160">U25</text></g><g id="U26T"><circle cx="620.0" cy="120.0" fill="rgb(255, 255, 255)" r="20.0" stroke="rgb(0, 0, 0)" stroke-width="2" /><line stroke="rgb(0, 0, 0)" stroke-width="2" x1="610.0" x2="639.6961550602441" y1="102.67949192431122" y2="116.5270364466614" /><line stroke="rgb(0, 0, 0)" stroke-width="2" x1="610.0" x2="639.6961550602441" y1="137.32050807568876" y2="123.4729635533386" /><line stroke="rgb(0, 0, 0)" stroke-width="1.0" x1="630.0" x2="610.0" y1="120.0" y2="120.0" /><line stroke="rgb(0, 0, 0)" stroke-width="1.0" x1="627.0710678118655" x2="612.9289321881345" y1="127.07106781186548" y2="112.92893218813452" /><line stroke="rgb(0, 0, 0)" stroke-width="1.0" x1="620.0" x2="620.0" y1="130.0" y2="110.0" /><line stroke="rgb(0, 0, 0)" stroke-width="1.0" x1="612.9289321881346" x2="627.0710678118654" y1="127.07106781186548" y2="112.92893218813452" /></g><g id="U26"><circle cx="600.0" cy="120.0" fill-opacity="0" r="3.0" stroke="rgb(0, 0, 255)" stroke-width="1" /><circle cx="640.0" cy="120.0" fill-opacity="0" r="3.0" stroke="rgb(255, 0, 0)" stroke-width="1" /><text fill="rgb(0, 0, 0)" font-family="Arial" font-size="12" text-anchor="middle" x="620.0" y="160">U26</text></g><g id="U5T"><rect fill="rgb(0, 0, 0)" height="10" stroke="rgb(0, 0, 0)" stroke-width="2" width="10" x="5" y="215" /></g><g id="U5"><circle cx="4.0" cy="220.0" fill-opacity="0" r="3.0" stroke="rgb(0, 0, 255)" stroke-width="1" /><circle cx="10.0" cy="214.0" fill-opacity="0" r="3.0" stroke="rgb(0, 0, 255)" stroke-width="1" /><circle cx="10.0" cy="226.0" fill-opacity="0" r="3.0" stroke="rgb(0, 0, 255)" stroke-width="1" /><circle cx="16.0" cy="220.0" fill-opacity="0" r="3.0" stroke="rgb(255, 0, 0)" stroke-width="1" /><text fill="rgb(0, 0, 0)" font-family="Arial" font-size="12" text-anchor="middle" x="10.0" y="240">U5</text></g><g id="U6T"><rect fill="rgb(0, 0, 0)" height="10" stroke="rgb(0, 0, 0)" stroke-width="2" width="10" x="105" y="215" /></g><g id="U6"><circle cx="104.0" cy="220.0" fill-opacity="0" r="3.0" stroke="rgb(0, 0, 255)" stroke-width="1" /><circle cx="110.0" cy="214.0" fill-opacity="0" r="3.0" stroke="rgb(255, 0, 0)" stroke-width="1" /><circle cx="110.0" cy="226.0" fill-opacity="0" r="3.0" stroke="rgb(255, 0, 0)" stroke-width="1" /><circle cx="116.0" cy="220.0" fill-opacity="0" r="3.0" stroke="rgb(255, 0, 0)" stroke-width="1" /><text fill="rgb(0, 0, 0)" font-family="Arial" font-size="12" text-anchor="middle" x="110.0" y="240">U6</text></g><g id="U7T"><path d="M 200 210.0  L 220.0 210.0  L 220.0 200  L 240 220.0  L 220.0 240  L 220.0 230.0  L 200 230.0  Z" fill="rgb(255, 255, 255)" stroke="rgb(0, 0, 0)" stroke-width="2" /></g><g id="U7"><circle cx="200.0" cy="220.0" fill-opacity="0" r="3.0" stroke="rgb(0, 0, 255)" stroke-width="1" /><circle cx="240.0" cy="220.0" fill-opacity="0" r="3.0" stroke="rgb(255, 0, 0)" stroke-width="1" /><text fill="rgb(0, 0, 0)" font-family="Arial" font-size="12" text-anchor="middle" x="220.0" y="260">U7</text></g><g id="U8T" transform="rotate(90,20.0,340.0 ) "><rect fill="rgb(255, 255, 255)" height="40.0" stroke="rgb(255, 255, 255)" stroke-width="2" width="40" x="0" y="320.0" /><line stroke="rgb(0, 0, 0)" stroke-width="2" x1="0" x2="0" y1="320.0" y2="360.0" /><line stroke="rgb(0, 0, 0)" stroke-width="2" x1="40" x2="40" y1="320.0" y2="360.0" /><path d="M 20.0 320.0  L 0.0 320.0  A 20.0 20.0 0 1,1 40.0 320.0 Z" fill="rgb(255, 255, 255)" stroke="rgb(0, 0, 0)" stroke-width="2" /><path d="M 20.0 360.0  L 40.0 360.0  A 20.0 20.0 0 1,1 0.0 360.0 Z" fill="rgb(255, 255, 255)" stroke="rgb(0, 0, 0)" stroke-width="2" /></g><g id="U8"><circle cx="-20.0" cy="340.0" fill-opacity="0" r="3.0" stroke="rgb(0, 0, 255)" stroke-width="1" /><circle cx="60.0" cy="340.0" fill-opacity="0" r="3.0" stroke="rgb(255, 0, 0)" stroke-width="1" /><text fill="rgb(0, 0, 0)" font-family="Arial" font-size="12" text-anchor="middle" x="20.0" y="400">U8</text></g><g id="U9T" transform="rotate(90,120.0,340.0 ) "><rect fill="rgb(255, 255, 255)" height="40.0" stroke="rgb(255, 255, 255)" stroke-width="2" width="40" x="100" y="320.0" /><line stroke="rgb(0, 0, 0)" stroke-width="2" x1="100" x2="100" y1="320.0" y2="360.0" /><line stroke="rgb(0, 0, 0)" stroke-width="2" x1="140" x2="140" y1="320.0" y2="360.0" /><path d="M 120.0 320.0  L 100.0 320.0  A 20.0 20.0 0 1,1 140.0 320.0 Z" fill="rgb(255, 255, 255)" stroke="rgb(0, 0, 0)" stroke-width="2" /><path d="M 120.0 360.0  L 140.0 360.0  A 20.0 20.0 0 1,1 100.0 360.0 Z" fill="rgb(255, 255, 255)" stroke="rgb(0, 0, 0)" stroke-width="2" /><line stroke="rgb(0, 0, 0)" stroke-width="2" x1="100" x2="140" y1="320.0" y2="360.0" /><line stroke="rgb(0, 0, 0)" stroke-width="2" x1="140" x2="100" y1="320.0" y2="360.0" /></g><g id="U9"><circle cx="80.0" cy="340.0" fill-opacity="0" r="3.0" stroke="rgb(0, 0, 255)" stroke-width="1" /><circle cx="160.0" cy="340.0" fill-opacity="0" r="3.0" stroke="rgb(255, 0, 0)" stroke-width="1" /><text fill="rgb(0, 0, 0)" font-family="Arial" font-size="12" text-anchor="middle" x="120.0" y="400">U9</text></g><g id="U10T" transform="rotate(90,220.0,340.0 ) "><rect fill="rgb(255, 255, 255)" height="40.0" stroke="rgb(255, 255, 255)" stroke-width="2" width="40" x="200" y="320.0" /><line stroke="rgb(0, 0, 0)" stroke-width="2" x1="200" x2="200" y1="320.0" y2="360.0" /><line stroke="rgb(0, 0, 0)" stroke-width="2" x1="240" x2="240" y1="320.0" y2="360.0" /><path d="M 220.0 320.0  L 200.0 320.0  A 20.0 20.0 0 1,1 240.0 320.0 Z" fill="rgb(255, 255, 255)" stroke="rgb(0, 0, 0)" stroke-width="2" /><path d="M 220.0 360.0  L 240.0 360.0  A 20.0 20.0 0 1,1 200.0 360.0 Z" fill="rgb(255, 255, 255)" stroke="rgb(0, 0, 0)" stroke-width="2" /><line stroke="rgb(0, 0, 0)" stroke-width="2" x1="208.0" x2="208.0" y1="320.0" y2="360.0" /><line stroke="rgb(0, 0, 0)" stroke-width="2" x1="216.0" x2="216.0" y1="320.0" y2="360.0" /><line stroke="rgb(0, 0, 0)" stroke-width="2" x1="224.0" x2="224.0" y1="320.0" y2="360.0" /><line stroke="rgb(0, 0, 0)" stroke-width="2" x1="232.0" x2="232.0" y1="320.0" y2="360.0" /></g><g id="U10"><circle cx="180.0" cy="340.0" fill-opacity="0" r="3.0" stroke="rgb(0, 0, 255)" stroke-width="1" /><circle cx="260.0" cy="340.0" fill-opacity="0" r="3.0" stroke="rgb(255, 0, 0)" stroke-width="1" /><text fill="rgb(0, 0, 0)" font-family="Arial" font-size="12" text-anchor="middle" x="220.0" y="400">U10</text></g><g id="U27T" transform="rotate(90,320.0,340.0 ) "><rect fill="rgb(255, 255, 255)" height="60" stroke="rgb(255, 255, 255)" stroke-width="2" width="40" x="300" y="310" /><line stroke="rgb(0, 0, 0)" stroke-width="2" x1="300" x2="300" y1="310" y2="370" /><line stroke="rgb(0, 0, 0)" stroke-width="2" x1="340" x2="340" y1="310" y2="370" /><path d="M 320.0 310.0  L 300.0 310.0  A 20.0 10.0 0 1,1 340.0 310.0 Z" fill="rgb(255, 255, 255)" stroke="rgb(0, 0, 0)" stroke-width="2" /><path d="M 320.0 370.0  L 340.0 370.0  A 20.0 10.0 0 1,1 300.0 370.0 Z" fill="rgb(255, 255, 255)" stroke="rgb(0, 0, 0)" stroke-width="2" /><line stroke="rgb(0, 0, 0)" stroke-width="2" x1="308.0" x2="308.0" y1="310" y2="370" /><line stroke="rgb(0, 0, 0)" stroke-width="2" x1="316.0" x2="316.0" y1="310" y2="370" /><line stroke="rgb(0, 0, 0)" stroke-width="2" x1="324.0" x2="324.0" y1="310" y2="370" /><line stroke="rgb(0, 0, 0)" stroke-width="2" x1="332.0" x2="332.0" y1="310" y2="370" /><line stroke="rgb(0, 0, 0)" stroke-width="2" x1="300" x2="332.0" y1="310.0" y2="310.0" /><line stroke="rgb(0, 0, 0)" stroke-width="2" x1="308.0" x2="340" y1="325.0" y2="325.0" /><line stroke="rgb(0, 0, 0)" stroke-width="2" x1="300" x2="332.0" y1="340.0" y2="340.0" /><line stroke="rgb(0, 0, 0)" stroke-width="2" x1="308.0" x2="340" y1="355.0" y2="355.0" /></g><g id="U27"><circle cx="280.0" cy="340.0" fill-opacity="0" r="3.0" stroke="rgb(0, 0, 255)" stroke-width="1" /><circle cx="360.0" cy="340.0" fill-opacity="0" r="3.0" stroke="rgb(255, 0, 0)" stroke-width="1" /><text fill="rgb(0, 0, 0)" font-family="Arial" font-size="12" text-anchor="middle" x="320.0" y="400">U27</text></g><g id="U28T" transform="rotate(90,420.0,340.0 ) "><rect fill="rgb(255, 255, 255)" height="60" stroke="rgb(255, 255, 255)" stroke-width="2" width="40" x="400" y="310" /><line stroke="rgb(0, 0, 0)" stroke-width="2" x1="400" x2="400" y1="310" y2="370" /><line stroke="rgb(0, 0, 0)" stroke-width="2" x1="440" x2="440" y1="310" y2="370" /><path d="M 420.0 310.0  L 400.0 310.0  A 20.0 10.0 0 1,1 440.0 310.0 Z" fill="rgb(255, 255, 255)" stroke="rgb(0, 0, 0)" stroke-width="2" /><path d="M 420.0 370.0  L 440.0 370.0  A 20.0 10.0 0 1,1 400.0 370.0 Z" fill="rgb(255, 255, 255)" stroke="rgb(0, 0, 0)" stroke-width="2" /><line stroke="rgb(0, 0, 0)" stroke-width="2" x1="408.0" x2="408.0" y1="310" y2="370" /><line stroke="rgb(0, 0, 0)" stroke-width="2" x1="416.0" x2="416.0" y1="310" y2="370" /><line stroke="rgb(0, 0, 0)" stroke-width="2" x1="424.0" x2="424.0" y1="310" y2="370" /><line stroke="rgb(0, 0, 0)" stroke-width="2" x1="432.0" x2="432.0" y1="310" y2="370" /><line stroke="rgb(0, 0, 0)" stroke-width="2" x1="408.0" x2="432.0" y1="310.0" y2="310.0" /><line stroke="rgb(0, 0, 0)" stroke-width="2" x1="400" x2="412.0" y1="325.0" y2="325.0" /><line stroke="rgb(0, 0, 0)" stroke-width="2" x1="428.0" x2="440" y1="325.0" y2="325.0" /><line stroke="rgb(0, 0, 0)" stroke-width="2" x1="408.0" x2="432.0" y1="340.0" y2="340.0" /><line stroke="rgb(0, 0, 0)" stroke-width="2" x1="400" x2="412.0" y1="355.0" y2="355.0" /><line stroke="rgb(0, 0, 0)" stroke-width="2" x1="428.0" x2="440" y1="355.0" y2="355.0" /></g><g id="U28"><circle cx="380.0" cy="340.0" fill-opacity="0" r="3.0" stroke="rgb(0, 0, 255)" stroke-width="1" /><circle cx="460.0" cy="340.0" fill-opacity="0" r="3.0" stroke="rgb(255, 0, 0)" stroke-width="1" /><text fill="rgb(0, 0, 0)" font-family="Arial" font-size="12" text-anchor="middle" x="420.0" y="400">U28</text></g><g id="U11T"><rect fill="rgb(255, 255, 255)" height="40.0" stroke="rgb(255, 255, 255)" stroke-width="2" width="40" x="0" y="420.0" /><line stroke="rgb(0, 0, 0)" stroke-width="2" x1="0" x2="0" y1="420.0" y2="460.0" /><line stroke="rgb(0, 0, 0)" stroke-width="2" x1="40" x2="40" y1="420.0" y2="460.0" /><path d="M 20.0 420.0  L 0.0 420.0  A 20.0 20.0 0 1,1 40.0 420.0 Z" fill="rgb(255, 255, 255)" stroke="rgb(0, 0, 0)" stroke-width="2" /><path d="M 20.0 460.0  L 40.0 460.0  A 20.0 20.0 0 1,1 0.0 460.0 Z" fill="rgb(255, 255, 255)" stroke="rgb(0, 0, 0)" stroke-width="2" /></g><g id="U11"><circle cx="20.0" cy="480.0" fill-opacity="0" r="3.0" stroke="rgb(0, 0, 255)" stroke-width="1" /><circle cx="20.0" cy="400.0" fill-opacity="0" r="3.0" stroke="rgb(255, 0, 0)" stroke-width="1" /><text fill="rgb(0, 0, 0)" font-family="Arial" font-size="12" text-anchor="middle" x="20.0" y="500">U11</text></g><g id="U12T"><rect fill="rgb(255, 255, 255)" height="40.0" stroke="rgb(255, 255, 255)" stroke-width="2" width="40" x="100" y="420.0" /><line stroke="rgb(0, 0, 0)" stroke-width="2" x1="100" x2="100" y1="420.0" y2="460.0" /><line stroke="rgb(0, 0, 0)" stroke-width="2" x1="140" x2="140" y1="420.0" y2="460.0" /><path d="M 120.0 420.0  L 100.0 420.0  A 20.0 20.0 0 1,1 140.0 420.0 Z" fill="rgb(255, 255, 255)" stroke="rgb(0, 0, 0)" stroke-width="2" /><path d="M 120.0 460.0  L 140.0 460.0  A 20.0 20.0 0 1,1 100.0 460.0 Z" fill="rgb(255, 255, 255)" stroke="rgb(0, 0, 0)" stroke-width="2" /><line stroke="rgb(0, 0, 0)" stroke-width="2" x1="100" x2="140" y1="420.0" y2="460.0" /><line stroke="rgb(0, 0, 0)" stroke-width="2" x1="140" x2="100" y1="420.0" y2="460.0" /></g><g id="U12"><circle cx="120.0" cy="480.0" fill-opacity="0" r="3.0" stroke="rgb(0, 0, 255)" stroke-width="1" /><circle cx="120.0" cy="400.0" fill-opacity="0" r="3.0" stroke="rgb(255, 0, 0)" stroke-width="1" /><text fill="rgb(0, 0, 0)" font-family="Arial" font-size="12" text-anchor="middle" x="120.0" y="500">U12</text></g><g id="U13T"><rect fill="rgb(255, 255, 255)" height="40.0" stroke="rgb(255, 255, 255)" stroke-width="2" width="40" x="200" y="420.0" /><line stroke="rgb(0, 0, 0)" stroke-width="2" x1="200" x2="200" y1="420.0" y2="460.0" /><line stroke="rgb(0, 0, 0)" stroke-width="2" x1="240" x2="240" y1="420.0" y2="460.0" /><path d="M 220.0 420.0  L 200.0 420.0  A 20.0 20.0 0 1,1 240.0 420.0 Z" fill="rgb(255, 255, 255)" stroke="rgb(0, 0, 0)" stroke-width="2" /><path d="M 220.0 460.0  L 240.0 460.0  A 20.0 20.0 0 1,1 200.0 460.0 Z" fill="rgb(255, 255, 255)" stroke="rgb(0, 0, 0)" stroke-width="2" /><line stroke="rgb(0, 0, 0)" stroke-width="2" x1="208.0" x2="208.0" y1="420.0" y2="460.0" /><line stroke="rgb(0, 0, 0)" stroke-width="2" x1="216.0" x2="216.0" y1="420.0" y2="460.0" /><line stroke="rgb(0, 0, 0)" stroke-width="2" x1="224.0" x2="224.0" y1="420.0" y2="460.0" /><line stroke="rgb(0, 0, 0)" stroke-width="2" x1="232.0" x2="232.0" y1="420.0" y2="460.0" /></g><g id="U13"><circle cx="220.0" cy="480.0" fill-opacity="0" r="3.0" stroke="rgb(0, 0, 255)" stroke-width="1" /><circle cx="220.0" cy="400.0" fill-opacity="0" r="3.0" stroke="rgb(255, 0, 0)" stroke-width="1" /><text fill="rgb(0, 0, 0)" font-family="Arial" font-size="12" text-anchor="middle" x="220.0" y="500">U13</text></g><g id="U23T"><rect fill="rgb(255, 255, 255)" height="60" stroke="rgb(255, 255, 255)" stroke-width="2" width="40" x="300" y="410" /><line stroke="rgb(0, 0, 0)" stroke-width="2" x1="300" x2="300" y1="410" y2="470" /><line stroke="rgb(0, 0, 0)" stroke-width="2" x1="340" x2="340" y1="410" y2="470" /><path d="M 300.0 410.0  A 20.0 10.0 0 1,1 340.0 410.0" fill="rgb(255, 255, 255)" stroke="rgb(0, 0, 0)" stroke-width="2" /><path d="M 340.0 470.0  A 20.0 10.0 0 1,1 300.0 470.0" fill="rgb(255, 255, 255)" stroke="rgb(0, 0, 0)" stroke-width="2" /><line stroke="rgb(0, 0, 0)" stroke-width="2" x1="320.0" x2="320.0" y1="400" y2="460.0" /><line stroke="rgb(0, 0, 0)" stroke-width="2" x1="310.0" x2="330.0" y1="460.0" y2="460.0" /><rect fill="rgb(0, 0, 0)" height="16.0" stroke="rgb(0, 0, 0)" stroke-width="2" width="5.0" x="310.0" y="452.0" /><rect fill="rgb(0, 0, 0)" height="16.0" stroke="rgb(0, 0, 0)" stroke-width="2" width="5.0" x="325.0" y="452.0" /><path d="M 300 426.0  L 295 436.0  L 295 470 " fill="none" stroke="rgb(0, 0, 0)" stroke-width="2" /><path d="M 340 426.0  L 345 436.0  L 345 470 " fill="none" stroke="rgb(0, 0, 0)" stroke-width="2" /><path d="M 345.0 470.0  A 25.0 15.0 0 1,1 295.0 470.0" fill="none" stroke="rgb(0, 0, 0)" stroke-width="2" /></g><g id="U23"><circle cx="320.0" cy="480.0" fill-opacity="0" r="3.0" stroke="rgb(0, 0, 255)" stroke-width="1" /><circle cx="320.0" cy="400.0" fill-opacity="0" r="3.0" stroke="rgb(255, 0, 0)" stroke-width="1" /><text fill="rgb(0, 0, 0)" font-family="Arial" font-size="12" text-anchor="middle" x="320.0" y="500">U23</text></g><g id="U24T"><rect fill="rgb(255, 255, 255)" height="60" stroke="rgb(255, 255, 255)" stroke-width="2" width="40" x="400" y="410" /><line stroke="rgb(0, 0, 0)" stroke-width="2" x1="400" x2="400" y1="410" y2="470" /><line stroke="rgb(0, 0, 0)" stroke-width="2" x1="440" x2="440" y1="410" y2="470" /><path d="M 400.0 410.0  A 20.0 10.0 0 1,1 440.0 410.0" fill="rgb(255, 255, 255)" stroke="rgb(0, 0, 0)" stroke-width="2" /><path d="M 440.0 470.0  A 20.0 10.0 0 1,1 400.0 470.0" fill="rgb(255, 255, 255)" stroke="rgb(0, 0, 0)" stroke-width="2" /><line stroke="rgb(0, 0, 0)" stroke-width="2" x1="420.0" x2="420.0" y1="400" y2="460.0" /><path d="M 410.0 452.0  L 410.0 460.0  L 430.0 460.0  L 430.0 452.0 " fill="none" stroke="rgb(0, 0, 0)" stroke-width="2" /><path d="M 400 426.0  L 395 436.0  L 395 470 " fill="none" stroke="rgb(0, 0, 0)" stroke-width="2" /><path d="M 440 426.0  L 445 436.0  L 445 470 " fill="none" stroke="rgb(0, 0, 0)" stroke-width="2" /><path d="M 445.0 470.0  A 25.0 15.0 0 1,1 395.0 470.0" fill="none" stroke="rgb(0, 0, 0)" stroke-width="2" /></g><g id="U24"><circle cx="420.0" cy="480.0" fill-opacity="0" r="3.0" stroke="rgb(0, 0, 255)" stroke-width="1" /><circle cx="420.0" cy="400.0" fill-opacity="0" r="3.0" stroke="rgb(255, 0, 0)" stroke-width="1" /><text fill="rgb(0, 0, 0)" font-family="Arial" font-size="12" text-anchor="middle" x="420.0" y="500">U24</text></g><g id="U29T"><rect fill="rgb(255, 255, 255)" height="80" stroke="rgb(0, 0, 0)" stroke-width="2" width="40" x="500" y="400" /><line stroke="rgb(0, 0, 0)" stroke-width="2" x1="500" x2="540" y1="470.0" y2="410.0" /><line stroke="rgb(0, 0, 0)" stroke-width="2" x1="500" x2="540" y1="410.0" y2="470.0" /><line stroke="rgb(0, 0, 0)" stroke-width="2" x1="500" x2="540" y1="424.0" y2="424.0" /><line stroke="rgb(0, 0, 0)" stroke-width="2" x1="500" x2="540" y1="440.0" y2="440.0" /><line stroke="rgb(0, 0, 0)" stroke-width="2" x1="500" x2="540" y1="456.0" y2="456.0" /></g><g id="U29"><circle cx="500.0" cy="470.0" fill-opacity="0" r="3.0" stroke="rgb(0, 0, 255)" stroke-width="1" /><circle cx="500.0" cy="410.0" fill-opacity="0" r="3.0" stroke="rgb(0, 0, 255)" stroke-width="1" /><circle cx="540.0" cy="410.0" fill-opacity="0" r="3.0" stroke="rgb(255, 0, 0)" stroke-width="1" /><circle cx="540.0" cy="470.0" fill-opacity="0" r="3.0" stroke="rgb(255, 0, 0)" stroke-width="1" /><text fill="rgb(0, 0, 0)" font-family="Arial" font-size="12" text-anchor="middle" x="520.0" y="500">U29</text></g><g id="U30T"><rect fill="rgb(255, 255, 255)" height="80" stroke="rgb(0, 0, 0)" stroke-width="2" width="40" x="600" y="400" /><line stroke="rgb(0, 0, 0)" stroke-width="2" x1="600" x2="640" y1="470.0" y2="410.0" /><line stroke="rgb(0, 0, 0)" stroke-width="2" x1="600" x2="640" y1="410.0" y2="470.0" /><line stroke="rgb(0, 0, 0)" stroke-width="2" x1="600" x2="640" y1="424.0" y2="424.0" /><line stroke="rgb(0, 0, 0)" stroke-width="2" x1="600" x2="640" y1="440.0" y2="440.0" /><line stroke="rgb(0, 0, 0)" stroke-width="2" x1="600" x2="640" y1="456.0" y2="456.0" /></g><g id="U30"><circle cx="600.0" cy="470.0" fill-opacity="0" r="3.0" stroke="rgb(0, 0, 255)" stroke-width="1" /><circle cx="640.0" cy="470.0" fill-opacity="0" r="3.0" stroke="rgb(0, 0, 255)" stroke-width="1" /><circle cx="640.0" cy="410.0" fill-opacity="0" r="3.0" stroke="rgb(255, 0, 0)" stroke-width="1" /><circle cx="600.0" cy="410.0" fill-opacity="0" r="3.0" stroke="rgb(255, 0, 0)" stroke-width="1" /><text fill="rgb(0, 0, 0)" font-family="Arial" font-size="12" text-anchor="middle" x="620.0" y="500">U30</text></g><g id="U14T"><rect fill-opacity="0" height="40.0" stroke="rgb(0, 0, 0)" stroke-width="2" width="40.0" x="20.0" y="580.0" /><circle cx="60.0" cy="580.0" fill="rgb(255, 255, 255)" r="20.0" stroke="rgb(0, 0, 0)" stroke-width="2" /><line stroke="rgb(0, 0, 0)" stroke-width="2" x1="60.0" x2="80" y1="620.0" y2="620.0" /><rect fill-opacity="0" height="40.0" stroke="rgb(0, 0, 0)" stroke-width="2" width="40.0" x="20.0" y="720.0" /><circle cx="60.0" cy="760.0" fill="rgb(255, 255, 255)" r="20.0" stroke="rgb(0, 0, 0)" stroke-width="2" /><path d="M 20.0 620.0  L 0.0 620.0  A 20.0 20.0 0 1,1 40.0 620.0 Z" fill="rgb(255, 255, 255)" stroke="rgb(0, 0, 0)" stroke-width="2" /><rect fill="rgb(255, 255, 255)" height="100.0" stroke="rgb(0, 0, 0)" stroke-width="2" width="40" x="0" y="620.0" /><path d="M 20.0 720.0  L 40.0 720.0  A 20.0 20.0 0 1,1 0.0 720.0 Z" fill="rgb(255, 255, 255)" stroke="rgb(0, 0, 0)" stroke-width="2" /></g><g id="U14"><circle cx="0.0" cy="670.0" fill-opacity="0" r="3.0" stroke="rgb(0, 0, 255)" stroke-width="1" /><circle cx="80.0" cy="620.0" fill-opacity="0" r="3.0" stroke="rgb(255, 0, 0)" stroke-width="1" /><circle cx="80.0" cy="760.0" fill-opacity="0" r="3.0" stroke="rgb(255, 0, 0)" stroke-width="1" /><text fill="rgb(0, 0, 0)" font-family="Arial" font-size="12" text-anchor="middle" x="20.0" y="780">U14</text></g><g id="U15T"><rect fill-opacity="0" height="40.0" stroke="rgb(0, 0, 0)" stroke-width="2" width="40.0" x="170.0" y="720.0" /><circle cx="210.0" cy="760.0" fill="rgb(255, 255, 255)" r="20.0" stroke="rgb(0, 0, 0)" stroke-width="2" /><path d="M 170.0 620.0  L 150.0 620.0  A 20.0 20.0 0 1,1 190.0 620.0 Z" fill="rgb(255, 255, 255)" stroke="rgb(0, 0, 0)" stroke-width="2" /><rect fill="rgb(255, 255, 255)" height="100.0" stroke="rgb(0, 0, 0)" stroke-width="2" width="40" x="150" y="620.0" /><path d="M 170.0 720.0  L 190.0 720.0  A 20.0 20.0 0 1,1 150.0 720.0 Z" fill="rgb(255, 255, 255)" stroke="rgb(0, 0, 0)" stroke-width="2" /></g><g id="U15"><circle cx="150.0" cy="670.0" fill-opacity="0" r="3.0" stroke="rgb(0, 0, 255)" stroke-width="1" /><circle cx="170.0" cy="600.0" fill-opacity="0" r="3.0" stroke="rgb(255, 0, 0)" stroke-width="1" /><circle cx="190.0" cy="620.0" fill-opacity="0" r="3.0" stroke="rgb(0, 0, 255)" stroke-width="1" /><circle cx="230.0" cy="760.0" fill-opacity="0" r="3.0" stroke="rgb(255, 0, 0)" stroke-width="1" /><text fill="rgb(0, 0, 0)" font-family="Arial" font-size="12" text-anchor="middle" x="170.0" y="780">U15</text></g><g id="U16T"><rect fill-opacity="0" height="40.0" stroke="rgb(0, 0, 0)" stroke-width="2" width="40.0" x="320.0" y="580.0" /><circle cx="360.0" cy="580.0" fill="rgb(255, 255, 255)" r="20.0" stroke="rgb(0, 0, 0)" stroke-width="2" /><line stroke="rgb(0, 0, 0)" stroke-width="2" x1="360.0" x2="380" y1="620.0" y2="620.0" /><path d="M 320.0 620.0  L 300.0 620.0  A 20.0 20.0 0 1,1 340.0 620.0 Z" fill="rgb(255, 255, 255)" stroke="rgb(0, 0, 0)" stroke-width="2" /><rect fill="rgb(255, 255, 255)" height="100.0" stroke="rgb(0, 0, 0)" stroke-width="2" width="40" x="300" y="620.0" /><path d="M 320.0 720.0  L 340.0 720.0  A 20.0 20.0 0 1,1 300.0 720.0 Z" fill="rgb(255, 255, 255)" stroke="rgb(0, 0, 0)" stroke-width="2" /></g><g id="U16"><circle cx="300.0" cy="670.0" fill-opacity="0" r="3.0" stroke="rgb(0, 0, 255)" stroke-width="1" /><circle cx="380.0" cy="620.0" fill-opacity="0" r="3.0" stroke="rgb(255, 0, 0)" stroke-width="1" /><circle cx="320.0" cy="740.0" fill-opacity="0" r="3.0" stroke="rgb(255, 0, 0)" stroke-width="1" /><circle cx="340.0" cy="720.0" fill-opacity="0" r="3.0" stroke="rgb(0, 0, 255)" stroke-width="1" /><text fill="rgb(0, 0, 0)" font-family="Arial" font-size="12" text-anchor="middle" x="320.0" y="760">U16</text></g><g id="U17T"><path d="M 470.0 620.0  L 450.0 620.0  A 20.0 20.0 0 1,1 490.0 620.0 Z" fill="rgb(255, 255, 255)" stroke="rgb(0, 0, 0)" stroke-width="2" /><rect fill="rgb(255, 255, 255)" height="100.0" stroke="rgb(0, 0, 0)" stroke-width="2" width="40" x="450" y="620.0" /><path d="M 470.0 720.0  L 490.0 720.0  A 20.0 20.0 0 1,1 450.0 720.0 Z" fill="rgb(255, 255, 255)" stroke="rgb(0, 0, 0)" stroke-width="2" /></g><g id="U17"><circle cx="450.0" cy="670.0" fill-opacity="0" r="3.0" stroke="rgb(0, 0, 255)" stroke-width="1" /><circle cx="470.0" cy="600.0" fill-opacity="0" r="3.0" stroke="rgb(255, 0, 0)" stroke-width="1" /><circle cx="490.0" cy="620.0" fill-opacity="0" r="3.0" stroke="rgb(0, 0, 255)" stroke-width="1" /><circle cx="470.0" cy="740.0" fill-opacity="0" r="3.0" stroke="rgb(255, 0, 0)" stroke-width="1" /><circle cx="490.0" cy="720.0" fill-opacity="0" r="3.0" stroke="rgb(0, 0, 255)" stroke-width="1" /><text fill="rgb(0, 0, 0)" font-family="Arial" font-size="12" text-anchor="middle" x="470.0" y="760">U17</text></g><g id="U18T"><rect fill-opacity="0" height="40.0" stroke="rgb(0, 0, 0)" stroke-width="2" width="40.0" x="20.0" y="840.0" /><circle cx="60.0" cy="840.0" fill="rgb(255, 255, 255)" r="20.0" stroke="rgb(0, 0, 0)" stroke-width="2" /><line stroke="rgb(0, 0, 0)" stroke-width="2" x1="60.0" x2="80" y1="880.0" y2="880.0" /><rect fill-opacity="0" height="40.0" stroke="rgb(0, 0, 0)" stroke-width="2" width="40.0" x="20.0" y="980.0" /><circle cx="60.0" cy="1020.0" fill="rgb(255, 255, 255)" r="20.0" stroke="rgb(0, 0, 0)" stroke-width="2" /><path d="M 20.0 880.0  L 0.0 880.0  A 20.0 20.0 0 1,1 40.0 880.0 Z" fill="rgb(255, 255, 255)" stroke="rgb(0, 0, 0)" stroke-width="2" /><rect fill="rgb(255, 255, 255)" height="100.0" stroke="rgb(0, 0, 0)" stroke-width="2" width="40" x="0" y="880.0" /><path d="M 20.0 980.0  L 40.0 980.0  A 20.0 20.0 0 1,1 0.0 980.0 Z" fill="rgb(255, 255, 255)" stroke="rgb(0, 0, 0)" stroke-width="2" /><line stroke="rgb(0, 0, 0)" stroke-width="2" x1="0" x2="32.0" y1="880.0" y2="880.0" /><line stroke="rgb(0, 0, 0)" stroke-width="2" x1="8.0" x2="40" y1="889.0909090909091" y2="889.0909090909091" /><line stroke="rgb(0, 0, 0)" stroke-width="2" x1="0" x2="32.0" y1="898.1818181818181" y2="898.1818181818181" /><line stroke="rgb(0, 0, 0)" stroke-width="2" x1="8.0" x2="40" y1="907.2727272727273" y2="907.2727272727273" /><line stroke="rgb(0, 0, 0)" stroke-width="2" x1="0" x2="32.0" y1="916.3636363636364" y2="916.3636363636364" /><line stroke="rgb(0, 0, 0)" stroke-width="2" x1="8.0" x2="40" y1="925.4545454545455" y2="925.4545454545455" /><line stroke="rgb(0, 0, 0)" stroke-width="2" x1="0" x2="32.0" y1="934.5454545454545" y2="934.5454545454545" /><line stroke="rgb(0, 0, 0)" stroke-width="2" x1="8.0" x2="40" y1="943.6363636363636" y2="943.6363636363636" /><line stroke="rgb(0, 0, 0)" stroke-width="2" x1="0" x2="32.0" y1="952.7272727272727" y2="952.7272727272727" /><line stroke="rgb(0, 0, 0)" stroke-width="2" x1="8.0" x2="40" y1="961.8181818181819" y2="961.8181818181819" /><line stroke="rgb(0, 0, 0)" stroke-width="2" x1="0" x2="32.0" y1="970.9090909090909" y2="970.9090909090909" /></g><g id="U18"><circle cx="0.0" cy="930.0" fill-opacity="0" r="3.0" stroke="rgb(0, 0, 255)" stroke-width="1" /><circle cx="80.0" cy="880.0" fill-opacity="0" r="3.0" stroke="rgb(255, 0, 0)" stroke-width="1" /><circle cx="80.0" cy="1020.0" fill-opacity="0" r="3.0" stroke="rgb(255, 0, 0)" stroke-width="1" /><text fill="rgb(0, 0, 0)" font-family="Arial" font-size="12" text-anchor="middle" x="20.0" y="1040">U18</text></g><g id="U19T"><rect fill-opacity="0" height="40.0" stroke="rgb(0, 0, 0)" stroke-width="2" width="40.0" x="170.0" y="840.0" /><circle cx="210.0" cy="840.0" fill="rgb(255, 255, 255)" r="20.0" stroke="rgb(0, 0, 0)" stroke-width="2" /><line stroke="rgb(0, 0, 0)" stroke-width="2" x1="210.0" x2="230" y1="880.0" y2="880.0" /><rect fill-opacity="0" height="40.0" stroke="rgb(0, 0, 0)" stroke-width="2" width="40.0" x="170.0" y="980.0" /><circle cx="210.0" cy="1020.0" fill="rgb(255, 255, 255)" r="20.0" stroke="rgb(0, 0, 0)" stroke-width="2" /><path d="M 170.0 880.0  L 150.0 880.0  A 20.0 20.0 0 1,1 190.0 880.0 Z" fill="rgb(255, 255, 255)" stroke="rgb(0, 0, 0)" stroke-width="2" /><rect fill="rgb(255, 255, 255)" height="100.0" stroke="rgb(0, 0, 0)" stroke-width="2" width="40" x="150" y="880.0" /><path d="M 170.0 980.0  L 190.0 980.0  A 20.0 20.0 0 1,1 150.0 980.0 Z" fill="rgb(255, 255, 255)" stroke="rgb(0, 0, 0)" stroke-width="2" /><line stroke="rgb(0, 0, 0)" stroke-width="2" x1="150" x2="190" y1="880.0" y2="920.0" /><line stroke="rgb(0, 0, 0)" stroke-width="2" x1="190" x2="150" y1="880.0" y2="920.0" /><line stroke="rgb(0, 0, 0)" stroke-width="2" x1="150" x2="190" y1="880.0" y2="880.0" /><line stroke="rgb(0, 0, 0)" stroke-width="2" x1="150" x2="190" y1="920.0" y2="920.0" /><line stroke="rgb(0, 0, 0)" stroke-width="2" x1="150" x2="190" y1="940.0" y2="980.0" /><line stroke="rgb(0, 0, 0)" stroke-width="2" x1="190" x2="150" y1="940.0" y2="980.0" /><line stroke="rgb(0, 0, 0)" stroke-width="2" x1="150" x2="190" y1="940.0" y2="940.0" /><line stroke="rgb(0, 0, 0)" stroke-width="2" x1="150" x2="190" y1="980.0" y2="980.0" /></g><g id="U19"><circle cx="150.0" cy="930.0" fill-opacity="0" r="3.0" stroke="rgb(0, 0, 255)" stroke-width="1" /><circle cx="230.0" cy="880.0" fill-opacity="0" r="3.0" stroke="rgb(255, 0, 0)" stroke-width="1" /><circle cx="230.0" cy="1020.0" fill-opacity="0" r="3.0" stroke="rgb(255, 0, 0)" stroke-width="1" /><text fill="rgb(0, 0, 0)" font-family="Arial" font-size="12" text-anchor="middle" x="170.0" y="1040">U19</text></g><g id="U20T"><rect fill-opacity="0" height="40.0" stroke="rgb(0, 0, 0)" stroke-width="2" width="40.0" x="320.0" y="840.0" /><circle cx="360.0" cy="840.0" fill="rgb(255, 255, 255)" r="20.0" stroke="rgb(0, 0, 0)" stroke-width="2" /><line stroke="rgb(0, 0, 0)" stroke-width="2" x1="360.0" x2="380" y1="880.0" y2="880.0" /><rect fill-opacity="0" height="40.0" stroke="rgb(0, 0, 0)" stroke-width="2" width="40.0" x="320.0" y="980.0" /><circle cx="360.0" cy="1020.0" fill="rgb(255, 255, 255)" r="20.0" stroke="rgb(0, 0, 0)" stroke-width="2" /><path d="M 320.0 880.0  L 300.0 880.0  A 20.0 20.0 0 1,1 340.0 880.0 Z" fill="rgb(255, 255, 255)" stroke="rgb(0, 0, 0)" stroke-width="2" /><rect fill="rgb(255, 255, 255)" height="100.0" stroke="rgb(0, 0, 0)" stroke-width="2" width="40" x="300" y="880.0" /><path d="M 320.0 980.0  L 340.0 980.0  A 20.0 20.0 0 1,1 300.0 980.0 Z" fill="rgb(255, 255, 255)" stroke="rgb(0, 0, 0)" stroke-width="2" /><line stroke="rgb(0, 0, 0)" stroke-width="2" x1="320.0" x2="320.0" y1="900" y2="960" /></g><g id="U20"><circle cx="300.0" cy="930.0" fill-opacity="0" r="3.0" stroke="rgb(0, 0, 255)" stroke-width="1" /><circle cx="380.0" cy="880.0" fill-opacity="0" r="3.0" stroke="rgb(255, 0, 0)" stroke-width="1" /><circle cx="380.0" cy="1020.0" fill-opacity="0" r="3.0" stroke="rgb(255, 0, 0)" stroke-width="1" /><text fill="rgb(0, 0, 0)" font-family="Arial" font-size="12" text-anchor="middle" x="320.0" y="1040">U20</text></g><g id="U21T"><rect fill-opacity="0" height="40.0" stroke="rgb(0, 0, 0)" stroke-width="2" width="40.0" x="470.0" y="840.0" /><circle cx="510.0" cy="840.0" fill="rgb(255, 255, 255)" r="20.0" stroke="rgb(0, 0, 0)" stroke-width="2" /><line stroke="rgb(0, 0, 0)" stroke-width="2" x1="510.0" x2="530" y1="880.0" y2="880.0" /><rect fill-opacity="0" height="40.0" stroke="rgb(0, 0, 0)" stroke-width="2" width="40.0" x="470.0" y="980.0" /><circle cx="510.0" cy="1020.0" fill="rgb(255, 255, 255)" r="20.0" stroke="rgb(0, 0, 0)" stroke-width="2" /><path d="M 470.0 880.0  L 450.0 880.0  A 20.0 20.0 0 1,1 490.0 880.0 Z" fill="rgb(255, 255, 255)" stroke="rgb(0, 0, 0)" stroke-width="2" /><rect fill="rgb(255, 255, 255)" height="100.0" stroke="rgb(0, 0, 0)" stroke-width="2" width="40" x="450" y="880.0" /><path d="M 470.0 980.0  L 490.0 980.0  A 20.0 20.0 0 1,1 450.0 980.0 Z" fill="rgb(255, 255, 255)" stroke="rgb(0, 0, 0)" stroke-width="2" /><line stroke="rgb(0, 0, 0)" stroke-width="2" x1="450" x2="482.0" y1="880.0" y2="880.0" /><line stroke="rgb(0, 0, 0)" stroke-width="2" x1="458.0" x2="490" y1="888.3333333333334" y2="888.3333333333334" /><line stroke="rgb(0, 0, 0)" stroke-width="2" x1="450" x2="482.0" y1="896.6666666666666" y2="896.6666666666666" /><line stroke="rgb(0, 0, 0)" stroke-width="2" x1="458.0" x2="490" y1="905.0" y2="905.0" /><line stroke="rgb(0, 0, 0)" stroke-width="2" x1="450" x2="482.0" y1="913.3333333333334" y2="913.3333333333334" /><line stroke="rgb(0, 0, 0)" stroke-width="2" x1="458.0" x2="490" y1="921.6666666666666" y2="921.6666666666666" /><line stroke="rgb(0, 0, 0)" stroke-width="2" x1="450" x2="490" y1="940.0" y2="980.0" /><line stroke="rgb(0, 0, 0)" stroke-width="2" x1="490" x2="450" y1="940.0" y2="980.0" /><line stroke="rgb(0, 0, 0)" stroke-width="2" x1="450" x2="490" y1="940.0" y2="940.0" /><line stroke="rgb(0, 0, 0)" stroke-width="2" x1="450" x2="490" y1="980.0" y2="980.0" /></g><g id="U21"><circle cx="450.0" cy="930.0" fill-opacity="0" r="3.0" stroke="rgb(0, 0, 255)" stroke-width="1" /><circle cx="530.0" cy="880.0" fill-opacity="0" r="3.0" stroke="rgb(255, 0, 0)" stroke-width="1" /><circle cx="530.0" cy="1020.0" fill-opacity="0" r="3.0" stroke="rgb(255, 0, 0)" stroke-width="1" /><text fill="rgb(0, 0, 0)" font-family="Arial" font-size="12" text-anchor="middle" x="470.0" y="1040">U21</text></g></svg>